<svg xmlns="http://www.w3.org/2000/svg" xmlns:xlink="http://www.w3.org/1999/xlink" width="120" height="120" viewBox="0 0 120 120">
    <defs>
        <path id="prefix__a" d="M0.15 0.099L12.576 0.099 12.576 19.027 0.15 19.027z"/>
        <path id="prefix__c" d="M0.1 0.099L12.526 0.099 12.526 19.027 0.1 19.027z"/>
        <path id="prefix__e" d="M0.075 0.025L8.793 0.025 8.793 12.8 0.075 12.8z"/>
    </defs>
    <g fill="none" fill-rule="evenodd">
        <path fill="#F47D20" d="M0 20.88h3.157l2.154-4.645h8.292l2.03 4.645h3.181L9.57.593 0 20.88zM9.545 7.043L12.4 13.54H6.539l3.006-6.498z" transform="translate(0 44.571)"/>
        <g>
            <g transform="translate(0 44.571) translate(20.543) translate(0 8.402)">
                <mask id="prefix__b" fill="#fff">
                    <use xlink:href="#prefix__a"/>
                </mask>
                <path fill="#F47D20" d="M9.695 6.523c0-1.16-.326-2.1-.952-2.816-.651-.742-1.453-1.112-2.43-1.112-1.027 0-1.879.345-2.53 1.062-.652.717-.977 1.63-.977 2.792 0 1.137.325 2.051.977 2.793.626.716 1.478 1.087 2.505 1.087.977 0 1.779-.37 2.43-1.087.651-.717.977-1.631.977-2.719zM2.981 19.027H.151V.445h2.83v1.31C4.083.666 5.361.098 6.764.098c1.679 0 3.056.618 4.159 1.828 1.102 1.211 1.653 2.743 1.653 4.596 0 1.805-.551 3.312-1.653 4.523-1.078 1.186-2.455 1.804-4.109 1.804-1.428 0-2.705-.569-3.833-1.706v7.883z" mask="url(#prefix__b)"/>
            </g>
            <g transform="translate(0 44.571) translate(20.543) translate(15.282 8.402)">
                <mask id="prefix__d" fill="#fff">
                    <use xlink:href="#prefix__c"/>
                </mask>
                <path fill="#F47D20" d="M9.645 6.523c0-1.16-.326-2.1-.952-2.816-.651-.742-1.453-1.112-2.43-1.112-1.027 0-1.879.345-2.53 1.062-.652.717-.977 1.63-.977 2.792 0 1.137.325 2.051.977 2.793.626.716 1.478 1.087 2.505 1.087.977 0 1.779-.37 2.43-1.087.651-.717.977-1.631.977-2.719zM2.931 19.027H.101V.445h2.83v1.31C4.033.666 5.311.098 6.714.098c1.679 0 3.056.618 4.159 1.828 1.102 1.211 1.653 2.743 1.653 4.596 0 1.805-.551 3.312-1.653 4.523-1.078 1.186-2.455 1.804-4.109 1.804-1.428 0-2.705-.569-3.833-1.706v7.883z" mask="url(#prefix__d)"/>
            </g>
            <path fill="#F47D20" d="M30.413 1.804L35.449 14.554 40.71.865 45.745 14.554 51.106 1.804 54.288 1.804 45.645 22.116 40.66 8.599 35.474 22.141 27.257 1.804zM56.342 14.826c0 1.21.326 2.15.977 2.867.677.716 1.554 1.062 2.656 1.062s1.979-.346 2.656-1.062c.65-.692 1.002-1.631 1.002-2.817 0-1.162-.326-2.1-1.002-2.817-.677-.717-1.554-1.063-2.656-1.063-1.077 0-1.954.346-2.63 1.063-.652.741-1.003 1.655-1.003 2.767m-2.88-.05c0-1.729.626-3.211 1.903-4.447 1.253-1.21 2.806-1.829 4.61-1.829 1.829 0 3.357.618 4.635 1.854 1.252 1.235 1.878 2.743 1.878 4.522 0 1.804-.626 3.31-1.904 4.546-1.277 1.211-2.83 1.829-4.684 1.829-1.83 0-3.357-.618-4.61-1.853-1.202-1.236-1.829-2.768-1.829-4.621M69.22 8.846h2.83v1.088c.526-.544.977-.915 1.378-1.088.4-.197.902-.32 1.453-.32.752 0 1.528.246 2.33.716l-1.303 2.545c-.526-.37-1.052-.568-1.578-.568-1.528 0-2.305 1.136-2.305 3.434v6.252h-2.83V8.846h.024zM81.72 0L81.72 12.726 85.703 8.846 89.487 8.846 84.175 13.912 89.862 20.905 86.204 20.905 82.171 15.815 81.72 16.26 81.72 20.905 78.889 20.905 78.889 0z" transform="translate(0 44.571) translate(20.543)"/>
            <g transform="translate(0 44.571) translate(20.543) translate(90.438 8.402)">
                <mask id="prefix__f" fill="#fff">
                    <use xlink:href="#prefix__e"/>
                </mask>
                <path fill="#F47D20" d="M8.017 2.496L5.687 3.73C5.31 2.99 4.86 2.62 4.309 2.62c-.25 0-.476.074-.676.247-.176.173-.276.396-.276.643 0 .47.551.914 1.628 1.359 1.503.642 2.505 1.21 3.032 1.754.526.544.776 1.26.776 2.15 0 1.162-.426 2.125-1.303 2.916-.851.741-1.853 1.112-3.056 1.112-2.054 0-3.507-.988-4.359-2.965L2.48 8.723c.326.568.576.939.777 1.112.35.32.751.47 1.227.47.952 0 1.428-.42 1.428-1.286 0-.494-.375-.963-1.102-1.384-.276-.148-.576-.271-.852-.42-.275-.123-.576-.271-.852-.42-.826-.395-1.402-.79-1.728-1.186C.952 5.115.726 4.448.726 3.657c0-1.038.351-1.903 1.103-2.595C2.58.371 3.482.025 4.534.025 6.088.099 7.24.89 8.017 2.495" mask="url(#prefix__f)"/>
            </g>
        </g>
    </g>
</svg>
