<svg xmlns="http://www.w3.org/2000/svg" width="120" height="120" viewBox="0 0 120 120">
    <defs>
        <linearGradient id="a" x1="49.999%" x2="49.999%" y1=".006%" y2="1.569%">
            <stop offset="0%" stop-color="#F9AA4B"/>
            <stop offset="100%" stop-color="#F7931A"/>
        </linearGradient>
    </defs>
    <g fill="none" fill-rule="nonzero">
        <path fill="url(#a)" d="M84.431 53.225c-5.724 22.959-28.98 36.932-51.945 31.206C9.53 78.707-4.444 55.452 1.284 32.494 7.006 9.532 30.262-4.442 53.22 1.282c22.963 5.725 36.936 28.982 31.211 51.943z" transform="translate(17.143 17.143)"/>
        <path fill="#FFF" d="M78.885 54.013c.853-5.72-3.49-8.796-9.426-10.848l1.926-7.75-4.703-1.175-1.875 7.545c-1.236-.309-2.505-.6-3.767-.89l1.888-7.595-4.7-1.175-1.926 7.747a156.882 156.882 0 0 1-3.003-.708l.005-.024-6.485-1.625-1.25 5.039s3.488.802 3.415.852c1.904.477 2.248 1.741 2.19 2.743l-5.276 21.23c-.233.581-.824 1.452-2.155 1.121.047.069-3.418-.856-3.418-.856l-2.334 5.4 6.119 1.53c1.138.287 2.254.586 3.352.869l-1.946 7.838 4.697 1.176 1.927-7.755c1.283.349 2.529.671 3.748.975l-1.92 7.719 4.701 1.176 1.946-7.824c8.019 1.522 14.048.908 16.586-6.367 2.045-5.859-.102-9.238-4.32-11.441 3.072-.711 5.386-2.739 6.004-6.927zM68.14 69.128c-1.453 5.858-11.285 2.69-14.473 1.897l2.583-10.385c3.187.798 13.409 2.378 11.89 8.488zm1.454-15.2c-1.326 5.33-9.509 2.622-12.163 1.958l2.34-9.418c2.655.664 11.204 1.902 9.823 7.46z"/>
    </g>
</svg>
