<svg xmlns="http://www.w3.org/2000/svg" width="120" height="120" viewBox="0 0 120 120">
    <defs>
        <linearGradient id="a" x1="50%" x2="50%" y1="100%" y2="0%">
            <stop offset="0%" stop-color="#FFC83A"/>
            <stop offset="100%" stop-color="#FFA700"/>
        </linearGradient>
    </defs>
    <g fill="none" fill-rule="evenodd">
        <path fill="url(#a)" d="M42.857 0C19.187 0 0 19.188 0 42.857c0 23.67 19.188 42.857 42.857 42.857 23.67 0 42.857-19.187 42.857-42.857C85.714 19.188 66.526 0 42.857 0z" transform="translate(17.143 17.143)"/>
        <path fill="#FFF" d="M76.895 59.78v.494c0 .763-.056 1.512-.161 2.246H48.297V57.57h28.444c.101.722.154 1.459.154 2.209zm-15.64 16.133H48.298v-8.688h26.971c-2.56 5.15-7.872 8.688-14.012 8.688zM48.298 43.934H61.05c6.272 0 11.693 3.645 14.26 8.932H48.298v-8.932zm37.16 8.932h-5.033c-2.823-8.118-10.767-13.151-19.504-13.151H43.833v13.15h-5.67v4.706h5.67v4.949h-5.67v4.705h5.67v12.907h17.373c8.542 0 16.172-5.248 19.07-12.907h5.181V62.52H81.4c.075-.694.114-1.399.114-2.115v-.925c0-.649-.03-1.285-.087-1.909h4.03v-4.705z"/>
    </g>
</svg>
