<svg xmlns="http://www.w3.org/2000/svg" width="120" height="120" viewBox="0 0 120 120">
    <defs>
        <radialGradient id="a" cx="45.883%" cy="95.388%" r="113.344%" fx="45.883%" fy="95.388%" gradientTransform="scale(1 .9901) rotate(-63.102 .467 .959)">
            <stop offset="79%" stop-color="#19475E"/>
            <stop offset="100%" stop-color="#0A3D50"/>
        </radialGradient>
        <radialGradient id="b" cx="20.861%" cy="16.526%" r="92.332%" fx="20.861%" fy="16.526%" gradientTransform="scale(.96015 1) rotate(60.57 .213 .173)">
            <stop offset="79%" stop-color="#19475E"/>
            <stop offset="100%" stop-color="#0A3D50"/>
        </radialGradient>
        <linearGradient id="c" x1="72.867%" x2="26.705%" y1="24.795%" y2="87.535%">
            <stop offset="0%" stop-color="#FFDB00"/>
            <stop offset="34%" stop-color="#FCB414"/>
            <stop offset="38%" stop-color="#FCAF17"/>
        </linearGradient>
        <linearGradient id="d" x1="63.323%" x2="24.311%" y1="6.961%" y2="92.254%">
            <stop offset="0%" stop-color="#FFDB00"/>
            <stop offset="34%" stop-color="#FCB414"/>
            <stop offset="38%" stop-color="#FCAF17"/>
        </linearGradient>
        <linearGradient id="e" x1="83.446%" x2="33.441%" y1="12.853%" y2="101.784%">
            <stop offset="0%" stop-color="#FFDB00"/>
            <stop offset="34%" stop-color="#FCB414"/>
            <stop offset="38%" stop-color="#FCAF17"/>
        </linearGradient>
        <linearGradient id="f" x1="66.63%" x2="16.614%" y1="-1.739%" y2="87.213%">
            <stop offset="0%" stop-color="#FFDB00"/>
            <stop offset="34%" stop-color="#FCB414"/>
            <stop offset="38%" stop-color="#FCAF17"/>
        </linearGradient>
        <linearGradient id="g" x1="75.468%" x2="36.674%" y1="8.003%" y2="92.912%">
            <stop offset="0%" stop-color="#FFDB00"/>
            <stop offset="34%" stop-color="#FCB414"/>
            <stop offset="38%" stop-color="#FCAF17"/>
        </linearGradient>
        <linearGradient id="h" x1="76.029%" x2="38.139%" y1="9.569%" y2="73.465%">
            <stop offset="0%" stop-color="#FFDB00"/>
            <stop offset="34%" stop-color="#FCB414"/>
            <stop offset="38%" stop-color="#FCAF17"/>
        </linearGradient>
        <linearGradient id="i" x1="61.737%" x2="24.133%" y1="26.727%" y2="89.843%">
            <stop offset="0%" stop-color="#FFDB00"/>
            <stop offset="34%" stop-color="#FCB414"/>
            <stop offset="38%" stop-color="#FCAF17"/>
        </linearGradient>
        <linearGradient id="j" x1="73.41%" x2="27.182%" y1="12.323%" y2="75.322%">
            <stop offset="0%" stop-color="#FFDB00"/>
            <stop offset="34%" stop-color="#FCB414"/>
            <stop offset="38%" stop-color="#FCAF17"/>
        </linearGradient>
    </defs>
    <g fill="none" fill-rule="evenodd">
        <path d="M-4.286-7.714h128.571v128.36H-4.285z"/>
        <path fill="#FEB904" fill-rule="nonzero" d="M60.744 38.708a8.95 8.95 0 0 1 8.269 5.517 8.925 8.925 0 0 1-1.94 9.738 8.962 8.962 0 0 1-9.755 1.937 8.936 8.936 0 0 1-5.525-8.256c.006-4.933 4.01-8.93 8.95-8.936zm0-9.986c-10.468 0-18.954 8.472-18.954 18.922 0 10.45 8.486 18.922 18.954 18.922 10.467 0 18.953-8.471 18.953-18.922 0-10.45-8.486-18.922-18.953-18.922z"/>
        <path fill="url(#a)" fill-rule="nonzero" d="M107.121 51.957a5 5 0 0 0-5.001-4.993H90.099a26.8 26.8 0 0 1 1.116 7.652c0 .787-.04 1.564-.107 2.336h6.013v.464c0 9.095-3.397 17.378-9.557 23.319a31.954 31.954 0 0 1-12.105 7.286 42.29 42.29 0 0 1-20.647 10.793c3.115.654 6.29.983 9.474.982 11.556 0 22.285-4.217 30.229-11.873 8.13-7.845 12.606-18.683 12.606-30.507v-5.459z" transform="translate(-4.286 -7.714)"/>
        <path fill="url(#b)" fill-rule="nonzero" d="M64.286 89.81a35.61 35.61 0 0 1-9.474-1.269 32.122 32.122 0 0 1-13.804-7.8c-6.16-5.947-9.557-14.228-9.557-23.318v-.464h6.013a27.2 27.2 0 0 1-.11-2.336 26.8 26.8 0 0 1 1.119-7.653H26.449a5.006 5.006 0 0 0-3.536 1.464 4.989 4.989 0 0 0-1.463 3.532v5.457c0 11.824 4.476 22.661 12.606 30.506l.112.105a42.291 42.291 0 0 0 20.644 10.793A42.29 42.29 0 0 0 75.46 88.034a35.241 35.241 0 0 1-11.173 1.776z" transform="translate(-4.286 -7.714)"/>
        <path fill="url(#c)" fill-rule="nonzero" d="M65.034 37.776a14.338 14.338 0 0 1 13.549 3.313.214.214 0 0 0 .04.037c.11.111.215.214.324.32.11.108.214.215.322.33l.032.03c.038.04.075.083.115.124.041.04.112.116.163.178.017.02.035.04.054.057l.227.257a.785.785 0 0 1 .094.111l.191.231c.012.01.023.023.03.037l.043.049.246.304a.387.387 0 0 1 .039.049c.08.1.156.214.236.308.087.118.177.24.263.362a.312.312 0 0 1 .034.045l.215.314v.01a.03.03 0 0 0 .015.02 18.988 18.988 0 0 1 .242.366c.163.254.321.507.476.768v.015c.077.13.152.263.227.4.075.137.148.27.214.406l.129.246c.027.054.057.107.083.163a4.95 4.95 0 0 1 .12.257l.08.166.115.264c.027.051.051.104.073.158.021.051.045.1.064.15.02.049.035.077.052.115l.068.165c.024.058.069.175.107.263.039.088.075.193.11.289l.053.147c.02.043.032.086.047.129.097.267.187.535.268.806.03.086.054.171.08.257l.09.317c0 .036.019.072.027.109l.05.188c.032.118.06.235.09.357a24.127 24.127 0 0 1 .199.935c.019.096.036.192.051.289l.058.334c.037.254.071.513.103.77.017.141.03.282.043.428.013.145.021.233.028.348.006.116.021.283.028.428 0 .184.019.366.023.552A14.303 14.303 0 0 0 73.766 41.47a14.33 14.33 0 0 0-15.864 6.82 14.102 14.102 0 0 0-1.828 6.204c0 .064-.013.124-.015.188-.002.041-.002.082 0 .122v.176a6.903 6.903 0 0 0 0 .73v.151a.16.16 0 0 0 0 .047.226.226 0 0 0 0 .054v.025a.927.927 0 0 0 .013.225c0 .07.013.14.02.214.006.075.023.171.036.259.013.088.026.152.04.227.065.378.157.751.275 1.116.036.112.073.214.111.334.017.04.032.08.045.122.032.083.067.167.099.248a.182.182 0 0 0 .021.04c.032.084.071.17.107.253a.507.507 0 0 1 .03.069c.03.055.058.115.088.177.03.062.071.148.112.214.058.12.126.235.195.351.094.165.197.323.308.481l.077.116s0 .017.018.023c.008.018.02.034.034.047.126.176.26.345.392.516a14.192 14.192 0 0 1-3.124-5.703 14.274 14.274 0 0 1 1.352-10.863 14.315 14.315 0 0 1 8.653-6.722l.073.045z" transform="translate(-4.286 -7.714)"/>
        <path fill="url(#d)" fill-rule="nonzero" d="M59.327 48.487a14.105 14.105 0 0 1 5.707-3.11 14.331 14.331 0 0 1 16.051 6.376 14.279 14.279 0 0 1-1.774 17.156c-.055.06-.117.122-.175.182l-.178.181-.364.353-.118.112-.18.166-.06.054c-.122.111-.242.214-.367.32a5.15 5.15 0 0 1-.265.228c-.037.027-.073.055-.105.085a7.291 7.291 0 0 1-.251.2l-.2.157-.16.125h-.01l-.14.109c-.056.04-.114.085-.172.124-.017.015-.034.023-.051.036-.054.043-.11.081-.165.118l-.15.105-.06.04a1.237 1.237 0 0 1-.116.08l-.152.1c-.188.128-.377.246-.572.364l-.321.192s-.018.01-.024.015c-.094.051-.186.107-.283.158a1.565 1.565 0 0 1-.141.08l-.36.194c-.088.05-.18.092-.268.135a1.501 1.501 0 0 1-.144.073c-.045.026-.092.049-.141.068-.075.04-.154.075-.234.114-.135.062-.272.128-.411.188l-.056.026c-.043.017-.088.034-.133.055-.09.037-.175.075-.27.111-.094.037-.231.097-.349.14l-.11.042-.34.126-.096.035c-.236.081-.472.16-.71.235a.152.152 0 0 1-.053.013c-.103.038-.215.066-.313.098l-.075.022-.49.132-.359.088c-.038 0-.081.017-.122.03l-.14.032-.226.05a9.563 9.563 0 0 1-.444.087c-.09.02-.173.034-.26.05a.326.326 0 0 0-.044 0 .215.215 0 0 0-.037 0l-.244.038a.268.268 0 0 1-.04 0l-.108.019-.268.036-.214.028-.186.021c-.142.02-.285.033-.429.043-.143.011-.236.022-.351.028-.116.007-.268.024-.403.03h-.122a.118.118 0 0 1-.039 0c-.137 0-.272.013-.41.013 6.4-.228 11.871-4.67 13.397-10.88A14.285 14.285 0 0 0 72.1 48.28a14.141 14.141 0 0 0-6.292-1.832h-.141a.264.264 0 0 0-.058 0h-.024a.032.032 0 0 0-.028 0 1.032 1.032 0 0 0-.165-.013 8.324 8.324 0 0 0-.73 0c-.056 0-.11.005-.165.013h-.101c-.137 0-.276.022-.411.039-.135.017-.268.032-.405.058a1.788 1.788 0 0 0-.26.043c-.053 0-.109.019-.16.031a.116.116 0 0 0-.041 0H63.1l-.107.028-.215.047h-.062a.644.644 0 0 0-.11.035c-.08.017-.158.044-.237.066a.43.43 0 0 0-.11.034c-.098.028-.196.064-.29.099a4.47 4.47 0 0 0-.32.124l-.04.017a.187.187 0 0 1-.037.015c-.099.045-.195.085-.294.132a.056.056 0 0 0-.032.015c-.12.052-.238.114-.356.176a3.64 3.64 0 0 0-.282.156c-.093.058-.24.141-.356.214-.083.047-.163.1-.238.158a.356.356 0 0 0-.088.06.015.015 0 0 0-.017 0c-.045.028-.09.059-.13.092-.045.03-.088.062-.13.096a.3.3 0 0 0-.053.04.293.293 0 0 0-.058.048 1.376 1.376 0 0 0-.212.216z" transform="translate(-4.286 -7.714)"/>
        <path fill="url(#e)" fill-rule="nonzero" d="M65.81 46.468c2.211.11 4.366.736 6.29 1.83a14.283 14.283 0 0 1 6.837 15.836 14.31 14.31 0 0 1-13.402 10.878H64.524c-.198 0-.395-.013-.592-.023-.126 0-.257-.013-.386-.026-.128-.013-.231-.017-.347-.028-.15-.015-.302-.028-.452-.047l-.428-.051a.197.197 0 0 0-.06 0c-.101-.017-.202-.03-.3-.05-.099-.019-.15-.025-.215-.034a.745.745 0 0 0-.111-.017 6.519 6.519 0 0 1-.25-.049c-.15-.026-.303-.056-.453-.088-.077-.013-.152-.032-.231-.049-.08-.017-.101-.021-.153-.036l-.107-.026-.358-.088c-.162-.04-.319-.087-.48-.128a.491.491 0 0 0-.07-.017c-.105-.032-.215-.06-.313-.099a.14.14 0 0 1-.052-.012l-.267-.088a.032.032 0 0 1-.02 0l-.428-.143-.09-.035a.021.021 0 0 1-.015 0c-.112-.038-.215-.079-.33-.122a.214.214 0 0 1-.05-.023.215.215 0 0 1-.062-.02c-.043-.017-.083-.032-.13-.055a1.93 1.93 0 0 1-.191-.073.858.858 0 0 1-.092-.04.448.448 0 0 1-.071-.026l-.156-.066-.108-.045-.051-.022a.092.092 0 0 0-.026-.01.45.45 0 0 0-.064-.033h-.021l-.108-.049-.199-.092c-.08-.038-.154-.072-.23-.113a.103.103 0 0 1-.04-.017.967.967 0 0 1-.107-.052l-.062-.03-.097-.05-.077-.04a1.885 1.885 0 0 1-.173-.087l-.362-.195-.14-.079c-.096-.051-.188-.107-.283-.158l-.032-.02a6.367 6.367 0 0 1-.313-.188l-.072-.043c-.035-.02-.069-.038-.101-.06l-.084-.053-.083-.053-.118-.075-.105-.069c-.043-.028-.084-.053-.127-.085l-.117-.077a15.3 15.3 0 0 1-.41-.287l-.049-.036-.171-.124c-.028-.022-.06-.043-.09-.069a.429.429 0 0 1-.054-.038.444.444 0 0 1-.051-.037c-.033-.021-.058-.047-.093-.07-.034-.024-.109-.086-.165-.129l-.3-.24-.051-.046-.045-.039c-.01 0-.026-.02-.036-.032-.06-.047-.118-.096-.176-.145l-.056-.052-.364-.319c-.088-.077-.17-.156-.255-.235a14.337 14.337 0 0 0 17.137 1.633 14.284 14.284 0 0 0 6.323-15.985 14.07 14.07 0 0 0-3.116-5.695l-.098-.114a.02.02 0 0 1-.011-.012s0-.017-.024-.024c-.023-.006 0-.017-.017-.021-.017-.005 0 0 0 0s-.013 0-.015-.017c-.002-.018 0 0-.01 0l-.02-.024a.57.57 0 0 0-.092-.1l-.02-.018a2.245 2.245 0 0 0-.214-.214.158.158 0 0 0-.04-.042l-.017-.02a1.484 1.484 0 0 0-.148-.139l-.101-.096v-.01a.064.064 0 0 0-.028-.02 1.03 1.03 0 0 0-.086-.077s0-.015-.01-.01a.214.214 0 0 0-.041-.035 1.05 1.05 0 0 0-.092-.083h-.013c-.075-.067-.152-.126-.231-.19a6.22 6.22 0 0 0-.268-.202l-.052-.034h-.015a4.652 4.652 0 0 0-.291-.199s-.015-.013-.022-.015a.032.032 0 0 0-.015 0 .141.141 0 0 0-.038-.03c-.032-.02-.064-.043-.1-.062-.037-.02-.125-.077-.192-.113l-.04-.028-.133-.073a1.042 1.042 0 0 0-.118-.062.52.52 0 0 0-.056-.032.253.253 0 0 1-.04-.023c-.065-.03-.129-.065-.193-.097l-.067-.028a.262.262 0 0 0-.058-.032l-.025-.01a4.832 4.832 0 0 0-.341-.15l-.032-.015a5.438 5.438 0 0 0-.334-.133c-.056-.015-.11-.038-.163-.051-.054-.013-.144-.05-.215-.073h-.092a6.03 6.03 0 0 0-.364-.107H67.29l-.148-.036h-.034a1.67 1.67 0 0 0-.14-.036h-.01a.193.193 0 0 1-.034 0h-.013a1.178 1.178 0 0 0-.17-.033h-.012l-.155-.03h-.064a.378.378 0 0 0-.096-.014.215.215 0 0 0-.071-.011c-.075-.015-.15-.024-.225-.032a.702.702 0 0 0-.13 0c-.063-.208-.12-.21-.179-.218z" transform="translate(-4.286 -7.714)"/>
        <path fill="url(#f)" fill-rule="nonzero" d="M62.295 63.854l.069.021h.027c.04.015.08.028.12.038l.198.056c.054.016.109.029.165.039l.171.042c.034 0 .073.015.111.028.039.013.075.013.114.022.039.008.05 0 .075.012l.225.039a.307.307 0 0 0 .073.013l.214.034.1.01h.016c.09.016.173.022.266.033a14.201 14.201 0 0 1-6.283-1.831 14.288 14.288 0 0 1-6.852-15.76 14.315 14.315 0 0 1 13.259-10.952h1.176c.29 0 .577.024.857.041.607.047 1.215.118 1.818.214l.126.021a.14.14 0 0 1 .04 0c.275.05.55.103.826.159a21.386 21.386 0 0 1 1.637.43c.17.053.334.102.495.16l.066.021.298.103a.365.365 0 0 1 .075.03c.142.05.285.107.429.158.09.033.178.069.268.11a.714.714 0 0 0 .085.034c.047.019.09.036.133.058.043.02.144.057.214.09l.15.064.183.08.075.04.047.019h.015c.034.019.07.032.103.05.036.018.07.03.102.05l.14.069.038.021a.502.502 0 0 1 .107.053c.099.045.2.097.3.155.058.027.114.055.17.087l.113.064c.031.014.061.03.09.047.024.013.047.024.071.039.036.017.073.038.105.058.075.038.15.081.214.126.017.015.041.026.058.038l.332.202.191.117c.069.04.133.084.197.126l.043.028a.184.184 0 0 1 .034.022c.105.072.215.14.305.214l.066.044c.088.065.176.125.268.189.016.008.031.02.045.032l.362.267s.015 0 .017.015c.116.086.225.171.337.261.064.052.13.1.195.156l.094.082c.111.087.214.182.332.276.03.022.057.046.084.072l.03.024c.085.077.169.15.257.225a.527.527 0 0 0 .07.066c.067.064.14.128.215.197-5.621-5.13-14.28-4.966-19.704.37-5.423 5.338-5.71 13.98-.653 19.664a.244.244 0 0 1 .032.036c.023.03.048.058.075.084 0 0 0 .01.01.015a.31.31 0 0 0 .045.047c0 .006.005.012.011.013a.024.024 0 0 0 .015.013c.03.041.064.08.1.117a.028.028 0 0 0 .014 0l.242.25.01.011c.05.052.106.103.161.156l.101.097.013.013c.013.012 0 0 .013.01l.028.024.053.047.02.017c.01.01.02.02.032.028.006.01.016.02.027.025l.018.02s.012 0 .012.013c.09.074.18.15.275.213.016.016.034.03.053.043.014.017.03.03.05.04l.075.059.117.09c.022.012.043.03.065.044a.088.088 0 0 0 .03.018l.032.021a.356.356 0 0 0 .088.06.366.366 0 0 0 .053.038l.129.09.056.03a7.018 7.018 0 0 0 .29.182l.044.021.021.015c.092.056.191.107.287.16.097.054.193.097.288.144.023 0 .045.022.068.032l.326.146a.182.182 0 0 1 .036.013c.135.055.272.107.407.158.022 0 .043.017.065.021l.304.144z" transform="translate(-4.286 -7.714)"/>
        <path fill="url(#g)" fill-rule="nonzero" d="M50.786 41.783c.107-.112.214-.214.321-.33.107-.115.214-.214.328-.32l.032-.035c.236-.214.48-.44.727-.653l.263-.224c.107-.088.214-.178.326-.263 0 0 0-.011.013-.013a.173.173 0 0 1 .021-.02c.116-.09.23-.18.35-.263a14.172 14.172 0 0 1 .356-.265s.014-.015.02-.015l.03-.021c.084-.062.172-.12.258-.182a.816.816 0 0 1 .088-.062c.057-.043.122-.081.182-.124s.105-.07.158-.103a.137.137 0 0 1 .039-.028.626.626 0 0 1 .086-.053c.098-.069.199-.128.3-.19a.352.352 0 0 1 .06-.035c.077-.047.15-.094.229-.139a.214.214 0 0 1 .047-.028c.017-.015.039-.025.056-.038l.058-.032.169-.094.103-.058a.744.744 0 0 1 .07-.039c.028-.017.06-.032.09-.047l.114-.064c.054-.032.111-.06.17-.088l.031-.019c.082-.04.163-.085.247-.126h.017l.253-.124c.051-.026.1-.051.15-.073l.158-.075.118-.055.14-.065.15-.064h.012c.067-.032.138-.06.215-.09.077-.03.088-.038.13-.057a.1.1 0 0 1 .041-.013l.045-.022c.064-.03.129-.053.19-.077.025-.01.05-.02.076-.027l.118-.047.319-.116c.024-.013.05-.017.075-.03.116-.043.238-.085.36-.124.165-.058.328-.107.495-.16.827-.26 1.67-.467 2.524-.619a.622.622 0 0 0 .124-.013 21.28 21.28 0 0 1 1.824-.212c.232-.012.47-.027.705-.034-7.626.339-13.643 6.592-13.676 14.213-.034 7.62 5.93 13.925 13.552 14.33h.174a.193.193 0 0 0 .049 0h.021l.146.01h.78l.14-.01h.027a.09.09 0 0 0 .03 0h.07c.123 0 .24-.024.363-.036a.176.176 0 0 1 .05 0h.025a.215.215 0 0 1 .064 0l.122-.018a.794.794 0 0 1 .125-.025l.16-.026a.517.517 0 0 1 .075-.015c.103-.017.215-.04.309-.06h.01l.33-.079a.15.15 0 0 1 .026 0l.225-.064c.045 0 .088-.026.133-.04h.047c.155-.048.309-.101.459-.16l.246-.095c.12-.05.238-.103.36-.16.075-.037.15-.071.23-.112l.128-.064.024-.013c.111-.058.214-.118.33-.182h.015a5.23 5.23 0 0 0 .35-.216l.018-.01a6.13 6.13 0 0 0 .335-.23c.107-.077.214-.154.312-.23l.018-.018s.01 0 .017-.013c.058-.042.115-.087.173-.136a14.186 14.186 0 0 1-5.717 3.127 14.335 14.335 0 0 1-13.928-3.675c-5.424-5.414-5.613-14.133-.429-19.776.021-.025.043-.051.069-.077a.284.284 0 0 1 .032-.072z" transform="translate(-4.286 -7.714)"/>
        <path fill="url(#h)" fill-rule="nonzero" d="M70.412 41.074c7.712-.005 14.041 6.092 14.31 13.786v1.008c0 .166-.015.389-.026.586 0 .128-.015.26-.025.387-.011.126-.017.229-.028.344-.015.15-.03.302-.047.454-.017.152-.037.302-.056.451-.02.15-.036.244-.056.362l-.096.545c-.028.15-.056.302-.09.452-.034.15-.064.3-.099.449-.034.15-.073.295-.111.445-.039.15-.082.302-.122.451-.041.15-.084.29-.133.428-.05.14-.11.338-.165.507-.04.12-.084.246-.13.368-.048.122-.108.289-.164.428-.055.14-.107.274-.165.409l-.01.021a24.09 24.09 0 0 1-.3.68c-.129.283-.27.563-.416.837-.064.122-.129.244-.193.361-.118.214-.236.428-.36.625l-.133.214c-.019.035-.04.068-.062.1-.036.056-.07.114-.107.167-.037.054-.05.084-.075.122l-.13.197c-.059.086-.117.171-.177.255-.06.083-.137.199-.214.295-.077.096-.111.156-.17.231-.087.122-.175.24-.27.357l-.213.274-.193.233-.09.107c-.043.054-.09.107-.137.156-.103.127-.215.246-.322.368-.107.122-.214.24-.332.358a14.279 14.279 0 0 0 1.774-17.156 14.331 14.331 0 0 0-16.052-6.377 14.105 14.105 0 0 0-5.743 3.14l-.053.046-.043.036-.017.02-.011.01c-.01.01 0 0 0 0a.047.047 0 0 0-.02.017l-.012.01a.047.047 0 0 0-.02.018c-.034.03-.062.06-.098.094h-.013c-.013 0 0 0-.013.01-.079.074-.154.148-.229.215a.276.276 0 0 0-.032.036s-.013.01-.013.015c-.084.077-.16.16-.24.242a.051.051 0 0 0-.021.03c-.028.032-.058.064-.086.098a.201.201 0 0 0-.03.034v.011a.1.1 0 0 0-.028.032l-.01.011c-.086.1-.172.203-.251.308-.056.07-.11.143-.161.214-.046.053-.088.11-.124.171-.065.092-.125.182-.183.27a3.9 3.9 0 0 0-.203.338l-.017.025c-.026.041-.05.083-.071.127-.054.09-.1.181-.15.273a6.47 6.47 0 0 0-.156.321c-.05.107-.099.214-.146.325a11.386 11.386 0 0 0-.152.402c-.043.12-.08.215-.114.339a.162.162 0 0 1-.013.034c-.015.064-.038.13-.055.195a4.941 4.941 0 0 1-.052.18 14.028 14.028 0 0 0-.094.401 4.812 4.812 0 0 0-.064.351 4.22 4.22 0 0 0-.069.451c-.01.105-.017.148-.024.215.12-2.182.746-4.305 1.828-6.204a14.319 14.319 0 0 1 12.388-7.146z" transform="translate(-4.286 -7.714)"/>
        <path fill="url(#i)" fill-rule="nonzero" d="M51.1 61.67a14.335 14.335 0 0 0 13.93 3.675 14.186 14.186 0 0 0 5.716-3.128l.035-.028a1.758 1.758 0 0 0 .143-.128.1.1 0 0 0 .028-.026l.12-.1.013-.013c.086-.081.171-.163.253-.246l.066-.067s.011-.01.015-.017l.043-.045c.013 0 .024-.023.037-.036a5.848 5.848 0 0 0 .107-.113c.01-.013.017-.026.023-.032a.1.1 0 0 0 .022-.022l.049-.053s0-.011.013-.017c.013-.007 0-.011.01-.013a.214.214 0 0 0 .035-.045l.02-.017c.087-.103.175-.214.256-.315a.576.576 0 0 0 .056-.07 2.65 2.65 0 0 0 .19-.257c.08-.111.155-.214.23-.334.118-.188.23-.376.336-.571l.065-.118c.053-.094.098-.192.145-.288l.033-.067c.053-.113.107-.233.158-.353v-.028c.047-.11.09-.226.133-.34a6.938 6.938 0 0 0 .236-.748c.032-.125.062-.214.085-.336a.312.312 0 0 1 .015-.065l.043-.213c.015-.073.028-.148.039-.214a.068.068 0 0 0 0-.026c.021-.13.04-.255.053-.383a.053.053 0 0 0 0-.026c.013-.092.02-.181.028-.273v-.101a14.102 14.102 0 0 1-1.836 6.386 14.375 14.375 0 0 1-7.072 6.189 14.343 14.343 0 0 1-13.168-1.253 14.294 14.294 0 0 1-6.524-11.489v-.505-.502c0-.17.012-.383.021-.567 0-.135.02-.272.03-.409.01-.137.013-.233.028-.349.015-.115.028-.282.043-.428a.278.278 0 0 1 0-.047c.01-.117.03-.233.043-.346 0-.05.012-.1.019-.146.013-.079.023-.154.036-.23.013-.078.017-.11.024-.163.006-.054.015-.086.026-.129a.147.147 0 0 1 0-.042c.012-.097.032-.193.049-.29.03-.147.058-.297.09-.442.032-.146.073-.332.111-.492a16.89 16.89 0 0 1 .339-1.237c.077-.254.16-.509.253-.76.034-.106.073-.213.113-.314a1.361 1.361 0 0 1 .069-.17c.013-.04.026-.078.043-.118.032-.088.07-.178.105-.263.058-.148.118-.287.182-.428.064-.142.126-.28.188-.428.063-.148.12-.246.18-.375a9.2 9.2 0 0 1 .232-.451 6.24 6.24 0 0 1 .17-.314 8.112 8.112 0 0 1 .28-.492 16.876 16.876 0 0 1 .74-1.164c.085-.124.173-.25.263-.375.178-.25.36-.494.55-.731.097-.118.193-.24.29-.353.096-.114.139-.174.214-.26a.627.627 0 0 1 .077-.091c.1-.113.202-.229.304-.342.065-.077.138-.148.215-.214-5.184 5.643-4.995 14.361.428 19.775l.067-.045z" transform="translate(-4.286 -7.714)"/>
        <path fill="url(#j)" fill-rule="nonzero" d="M52.577 67.786a14.348 14.348 0 0 0 12.457.821 14.375 14.375 0 0 0 7.071-6.189 14.102 14.102 0 0 0 1.836-6.424.235.235 0 0 0 0-.056.483.483 0 0 0 0-.053c0-.056 0-.107.013-.16v-.745l-.013-.16a.271.271 0 0 0 0-.043.517.517 0 0 0 0-.08v-.092c0-.096-.019-.196-.03-.29a.267.267 0 0 1 0-.041c0-.08-.019-.154-.032-.233a2.074 2.074 0 0 0-.036-.231 5.437 5.437 0 0 0-.075-.381c-.03-.124-.058-.255-.092-.383a5.764 5.764 0 0 0-.112-.375 8.205 8.205 0 0 0-.443-1.11 3.752 3.752 0 0 0-.172-.348 5.71 5.71 0 0 0-.173-.32c-.06-.104-.129-.213-.197-.324a.259.259 0 0 0-.03-.043 4.721 4.721 0 0 0-.183-.276 10.73 10.73 0 0 0-.428-.571 14.07 14.07 0 0 1 3.116 5.694A14.284 14.284 0 0 1 68.73 71.36a14.337 14.337 0 0 1-17.137-1.633c-.035-.034-.073-.066-.108-.098a18.773 18.773 0 0 1-.717-.72c-.118-.123-.236-.25-.352-.374-.116-.124-.214-.226-.3-.346a6.367 6.367 0 0 1-.225-.263c-.07-.088-.154-.186-.23-.28-.151-.191-.308-.39-.45-.585a2.206 2.206 0 0 1-.145-.214.039.039 0 0 1-.015-.017.01.01 0 0 1 0-.01 11.766 11.766 0 0 1-.263-.366 10.349 10.349 0 0 1-.243-.355.481.481 0 0 1-.025-.045.332.332 0 0 1-.045-.07c-.062-.1-.129-.2-.189-.3-.06-.1-.16-.261-.238-.394-.032-.045-.055-.092-.081-.135a4.08 4.08 0 0 1-.11-.194 1.253 1.253 0 0 1-.09-.167c-.027-.045-.053-.094-.083-.144-.03-.049-.06-.107-.086-.166-.025-.06-.083-.163-.128-.246-.013-.03-.03-.063-.05-.099a.599.599 0 0 0-.032-.064c-.068-.137-.13-.272-.195-.41v-.012c-.064-.136-.124-.28-.186-.427-.043-.095-.082-.193-.124-.29a8.537 8.537 0 0 1-.163-.408c-.052-.139-.112-.286-.167-.428l-.097-.273c-.07-.2-.137-.403-.201-.602-.043-.145-.088-.288-.131-.427-.043-.14-.081-.302-.12-.452-.039-.15-.075-.3-.114-.445-.038-.145-.066-.301-.098-.45a10.506 10.506 0 0 1-.09-.45 11.22 11.22 0 0 1-.099-.578c-.019-.1-.032-.201-.047-.3v-.062a8.53 8.53 0 0 1-.051-.417c-.02-.152-.032-.3-.047-.453-.015-.116-.022-.231-.028-.345-.007-.113-.02-.259-.026-.387a.835.835 0 0 1 0-.096.214.214 0 0 0 0-.062l-.013-.428a14.294 14.294 0 0 0 7.185 11.914z" transform="translate(-4.286 -7.714)"/>
    </g>
</svg>
