<svg xmlns="http://www.w3.org/2000/svg" width="120" height="120" viewBox="0 0 120 120">
    <g fill="none" fill-rule="nonzero" transform="translate(17.143 17.143)">
        <circle cx="42.857" cy="42.857" r="42.857" fill="#50A89A"/>
        <g fill="#FFF">
            <path d="M19.886 28.543V59.57c0 .643-.515 1.2-1.2 1.2-.686 0-1.2-.514-1.2-1.2V26.143c0-.986 1.114-1.543 1.885-.943l20.743 15.6c.3.214.472.557.472.943V59.57c0 .643-.515 1.2-1.2 1.2-.643 0-1.2-.514-1.2-1.2V42.343l-18.3-13.8zM47.014 42.343V59.57c0 .643-.514 1.2-1.2 1.2-.643 0-1.2-.514-1.2-1.2V41.743c0-.386.172-.729.472-.943l20.743-15.6c.771-.6 1.885-.043 1.885.943V59.57c0 .643-.514 1.2-1.2 1.2-.643 0-1.2-.514-1.2-1.2V28.543l-18.3 13.8z"/>
        </g>
    </g>
</svg>
