<svg xmlns="http://www.w3.org/2000/svg" xmlns:xlink="http://www.w3.org/1999/xlink" width="120" height="120" viewBox="0 0 120 120">
    <defs>
        <path id="prefix__a" d="M0 0.064L96.527 0.064 96.527 56.141 0 56.141z"/>
        <path id="prefix__c" d="M0 85.651L96.528 85.651 96.528 0.599 0 0.599z"/>
    </defs>
    <g fill="none" fill-rule="evenodd" transform="translate(12 17.143)">
        <g transform="translate(0 .536)">
            <mask id="prefix__b" fill="#fff">
                <use xlink:href="#prefix__a"/>
            </mask>
            <path fill="#013878" d="M62.079 11.873l-.453 17.04c-.003.126-.049.25-.132.348L50.899 41.965c-.11.133-.267.204-.43.204-.066 0-.136-.011-.203-.037-.228-.086-.372-.3-.366-.545l.134-5.515v-.01l.13.013-.13-.014c.023-.24.15-1.469.41-2.121.356-.89.905-2.073 1.015-2.31.002-.012.005-.024.011-.035l9.534-19.982c.117-.248.377-.372.642-.306.268.064.441.292.433.566zm.855 19.796L76.54 51.114c.121.175.135.4.037.587-.098.19-.29.306-.501.306H64.87c-.288 0-.58-.063-.844-.183L51.06 45.912c-.161-.073-.278-.214-.318-.389-.04-.173.003-.353.117-.49l11.178-13.402c.114-.138.279-.22.459-.204.177.009.337.097.438.242zm1.135-21.935c.007-.263.176-.474.43-.536.256-.062.5.045.63.273l12.099 21.616c.11.2.094.438-.045.62-.11.145-.273.224-.445.224-.047 0-.092-.006-.14-.017l-12.59-3.087c-.258-.063-.44-.301-.431-.566l.492-18.527zm15.005 24.861c.108.073.24.223.402.457l.35.556c.004.01.01.02.013.03.046.082.174.315.207.467.032.148.04.456.04.555.003.01.003.022.003.033l-.95 13.013c-.018.242-.18.441-.413.506-.051.014-.103.022-.154.022-.181 0-.35-.087-.46-.243v.001L65.706 32.261c-.136-.197-.137-.451-.003-.648.136-.197.37-.287.602-.23l11.93 2.925c.455.12.729.215.84.287zm2.684 5.78c.019-.244.183-.444.42-.506.232-.06.479.028.615.233l7.324 11.023c.118.177.128.395.026.583-.1.188-.285.299-.498.299h-8.127c-.156 0-.307-.066-.415-.181-.105-.115-.161-.27-.15-.428l.805-11.022zM57.94 51.613c-.052.236-.248.395-.49.395H45.904c-.229 0-.427-.13-.518-.338-.092-.21-.053-.443.1-.611l3.305-3.622c.165-.183.424-.236.65-.134l8.216 3.744c.222.102.335.328.283.566zm-16.191.395H27.642c-.215 0-.41-.12-.505-.313-.097-.195-.076-.423.054-.596l10.842-14.444c.102-.136.258-.218.426-.226.168-.004.328.058.442.182l8.263 8.969c.2.219.2.548 0 .768l-4.998 5.475c-.107.119-.259.185-.417.185zm-17.742-.465c-.025 0-.05-.002-.075-.005-.218-.026-.402-.162-.49-.365L18.69 40.28c-.048-.14-.119-.377-.113-.534.003-.043.008-.171.237-.542l.534-.783c.178-.24.336-.42.481-.553.329-.297.883-.641 1.016-.722.008-.01.017-.017.028-.023l11.6-7.068c.231-.145.533-.099.717.108l3.68 4.202c.145.164.155.41.022.587l-12.4 16.347c-.117.156-.295.244-.486.244zm-2.702.207c-.104.162-.28.258-.473.258H8.156c-.23 0-.429-.132-.52-.343-.09-.212-.049-.447.11-.615l8.68-9.163c.132-.139.322-.202.508-.168.188.033.345.156.421.331l3.995 9.165c.077.175.06.375-.045.535zm2.544-19.975l8.082-11.937c.149-.219.419-.305.662-.214.248.09.396.328.368.59l-.775 7.483c-.018.175-.118.335-.268.426l-7.307 4.454c-.095.06-.197.087-.298.087-.148 0-.294-.062-.406-.18-.189-.199-.21-.483-.058-.71zM35.173 17.62c.024-.236.187-.428.414-.49.226-.061.464.022.605.212l10.29 14.08c.507.727 1.15 1.707 1.347 2.26.245.69.253 1.266.264 2.137l.002.151c.004.015.008.03.008.044l-.149 6.132c-.005.235-.146.433-.366.517-.067.025-.137.038-.204.038-.153 0-.3-.064-.41-.184l-7.87-8.542-.007-.006-4.861-5.551c-.105-.118-.155-.276-.138-.433l1.075-10.365zM61.25 1.469l-11.886 25.47c-.155.28-.411.447-.686.456-.223.014-.4-.083-.497-.233L36.494 10.8c-.46-.633-1.033-.928-1.803-.93h-.001c-.666 0-1.392.557-1.764 1.108L15.224 37.149c-.004.003-.026.03-.028.033L.63 52.554c-.594.628-.797 1.61-.487 2.336.326.76 1.07 1.251 1.895 1.251l92.288-.008c.712 0 1.67-.38 2.046-1.083.34-.64.076-1.838-.374-2.515L83.021 32.99 65.224 1.243C64.806.497 64.06.063 63.21.063c-.053 0-.106.002-.16.006-.79.025-1.486.743-1.8 1.4z" mask="url(#prefix__b)"/>
        </g>
        <path fill="#013878" d="M11.574 76.607L7.346 71.616 4.405 71.616 4.405 85.651 7.823 85.651 7.823 76.995 11.186 81.021 11.941 81.021 15.304 76.995 15.304 85.651 18.724 85.651 18.724 71.616 15.802 71.616z"/>
        <mask id="prefix__d" fill="#fff">
            <use xlink:href="#prefix__c"/>
        </mask>
        <path fill="#013878" d="M35.266 85.651L38.686 85.651 38.686 71.616 35.266 71.616zM53.086 74.419L57.861 74.419 57.861 85.65 61.281 85.65 61.281 74.419 66.056 74.419 66.056 71.616 53.086 71.616zM89.253 77.186L83.091 77.186 83.091 71.616 79.672 71.616 79.672 85.651 83.091 85.651 83.091 80.065 89.253 80.065 89.253 85.651 92.673 85.651 92.673 71.616 89.253 71.616z" mask="url(#prefix__d)"/>
    </g>
</svg>
