<svg xmlns="http://www.w3.org/2000/svg" width="240" height="288" viewBox="0 0 240 288">
    <g fill="none" fill-rule="evenodd">
        <path fill="#FFF" stroke="#D82E2E" d="M239.5 120.5H1.5v47.552c0 65.722 53.279 119 119 119 65.722 0 119-53.278 119-119V120.5z"/>
        <path fill="#FFF" d="M239.5 120c0 65.998-53.502 119.5-119.5 119.5C54.001 239.5.5 185.998.5 120 .5 54.002 54.002.5 120 .5 185.998.5 239.5 54.002 239.5 120"/>
        <path stroke="#D82E2E" d="M239.5 120c0 65.998-53.502 119.5-119.5 119.5C54.001 239.5.5 185.998.5 120 .5 54.002 54.002.5 120 .5 185.998.5 239.5 54.002 239.5 120z"/>
        <path stroke="#D82E2E" d="M142.898 131.45l-106.436.316 73.855 49.33 34.945 52.584-2.364-102.23"/>
        <path stroke="#D82E2E" d="M36.462 131.686l48.514-34.79 57.922 34.473 57.863 68.963 2.813-68.882"/>
        <path stroke="#D82E2E" d="M84.976 96.976l25.341 84.12-48.02 35.832-25.835-85.162-8.526 64.422M200.761 200.413l-90.444-19.316 93.257-49.647h-60.676M62.297 216.928l82.965 16.752"/>
        <path fill="#FFF" d="M125.96 181.096c0 8.64-7.003 15.643-15.643 15.643-8.638 0-15.642-7.003-15.642-15.643s7.004-15.644 15.642-15.644c8.64 0 15.644 7.004 15.644 15.644"/>
        <path fill="#EAEAEA" d="M55.373 131.766c0 10.444-8.467 18.91-18.91 18.91-10.444 0-18.91-8.466-18.91-18.91 0-10.443 8.466-18.909 18.91-18.909 10.443 0 18.91 8.466 18.91 18.91M218.41 131.45c0 8.193-6.642 14.835-14.835 14.835-8.193 0-14.836-6.642-14.836-14.835 0-8.194 6.643-14.836 14.836-14.836 8.193 0 14.836 6.642 14.836 14.836"/>
        <path fill="#FFF" d="M218.961 200.413c0 10.052-8.148 18.2-18.2 18.2-10.05 0-18.199-8.148-18.199-18.2s8.148-18.2 18.2-18.2c10.051 0 18.2 8.148 18.2 18.2"/>
        <path fill="#EAEAEA" d="M156.996 233.68c0 6.48-5.253 11.732-11.733 11.732s-11.733-5.253-11.733-11.732c0-6.479 5.253-11.732 11.733-11.732s11.733 5.253 11.733 11.732"/>
        <path fill="#FFF" d="M82.487 216.928c0 11.15-9.04 20.188-20.19 20.188-11.15 0-20.188-9.039-20.188-20.188 0-11.15 9.039-20.189 20.189-20.189s20.189 9.04 20.189 20.19M153.395 131.45c0 5.797-4.699 10.497-10.497 10.497-5.797 0-10.497-4.7-10.497-10.497 0-5.798 4.7-10.497 10.497-10.497 5.798 0 10.497 4.699 10.497 10.497"/>
        <path fill="#EAEAEA" d="M94.674 96.976c0 5.356-4.342 9.698-9.698 9.698-5.356 0-9.698-4.342-9.698-9.698 0-5.355 4.342-9.697 9.698-9.697 5.356 0 9.698 4.342 9.698 9.697"/>
        <path stroke="#D82E2E" d="M124.964 175.59c.644 1.713.996 3.567.996 5.506 0 8.64-7.004 15.642-15.643 15.642-8.639 0-15.643-7.002-15.643-15.642s7.004-15.644 15.643-15.644M22.375 144.38a18.835 18.835 0 0 1-4.822-12.613c0-10.444 8.466-18.91 18.91-18.91M51.78 120.675a18.826 18.826 0 0 1 3.593 11.091c0 10.444-8.467 18.91-18.91 18.91-1.958 0-3.847-.298-5.623-.85M191.973 140.698a14.775 14.775 0 0 1-3.234-9.248c0-8.194 6.642-14.836 14.836-14.836M217.289 125.779a14.795 14.795 0 0 1 1.122 5.67c0 8.194-6.643 14.836-14.836 14.836-2.051 0-4.004-.416-5.781-1.168M187.365 212.732a18.133 18.133 0 0 1-4.803-12.319c0-8.795 6.239-16.133 14.532-17.83M214.603 188.595a18.125 18.125 0 0 1 4.358 11.817c0 10.052-8.148 18.201-18.2 18.201-1.606 0-3.164-.208-4.647-.599M136.966 241.976a11.698 11.698 0 0 1-3.437-8.296c0-6.479 5.253-11.732 11.733-11.732.61 0 1.21.046 1.794.135M154.69 226.697a11.677 11.677 0 0 1 2.306 6.983c0 6.48-5.253 11.733-11.734 11.733-.81 0-1.6-.082-2.364-.238M133.473 136.076a10.446 10.446 0 0 1-1.072-4.626c0-5.798 4.7-10.497 10.497-10.497.711 0 1.406.07 2.077.205M152.77 127.868c.404 1.118.625 2.324.625 3.582 0 5.797-4.699 10.497-10.497 10.497-2.068 0-3.997-.6-5.622-1.632M93.946 93.284a9.699 9.699 0 1 1-8.97-6.005M73.585 200.187c5.37 3.628 8.902 9.772 8.902 16.741 0 11.15-9.04 20.19-20.19 20.19-11.148 0-20.188-9.04-20.188-20.19 0-10.286 7.692-18.775 17.637-20.029"/>
        <path fill="#EAEAEA" d="M128.67 56.415l3.973 11.555 30.77-10.58L51.611 251.922l9.93 7.245 112.467-195.69 6.348 31.914 11.984-2.384-10.89-54.741z"/>
        <path stroke="#D82E2E" d="M129.375 116.614L55.032 245.968M159.23 64.668l-19.515 33.955M136.988 66.475l26.426-9.086M173.766 40.908L128.67 56.415M191.713 89.857l-8.752-43.993M176.123 74.106l4.233 21.284M116.828 163.213l54.18-94.515M69.126 245.967l39.599-68.898"/>
    </g>
</svg>
