<svg xmlns="http://www.w3.org/2000/svg" width="240" height="288" viewBox="0 0 240 288">
    <g fill="none" fill-rule="evenodd">
        <path d="M0 0h240v288H0z"/>
        <path fill="#FFF" stroke="#D82E2E" d="M239 120.5H1v47.552c0 65.72 53.278 119 119 119 65.722 0 119-53.28 119-119V120.5z"/>
        <path fill="#FFF" stroke="#D82E2E" d="M239 120C239 54.278 185.722 1 120 1 54.278 1 1 54.278 1 120c0 65.722 53.278 119 119 119 65.722 0 119-53.278 119-119z"/>
        <path stroke="#D82E2E" d="M11.584 159.828v-40.78h56.813M85.126 118.049h9.641v85.088H48.319"/>
        <path fill="#EAEAEA" d="M85.126 129.035H21.224v47.233c1.131 1.659 10.304 14.286 11.516 15.882h52.386v-63.115z"/>
        <path stroke="#D82E2E" d="M72.3 129.035h12.826v63.115H36.693"/>
        <path fill="#FFF" d="M81.464 183.597h7.324v-14.589h-7.324zM81.464 152.176h7.324v-14.589h-7.324z"/>
        <path stroke="#D82E2E" d="M88.788 183.597h-7.324v-8.914M88.788 152.177h-7.324v-8.915"/>
        <path fill="#FFF" d="M60.31 160.593c0 8.618-6.986 15.603-15.604 15.603-8.618 0-15.604-6.986-15.604-15.603 0-8.618 6.986-15.605 15.604-15.605 8.618 0 15.604 6.987 15.604 15.605"/>
        <path stroke="#D82E2E" d="M34.822 172.668a15.572 15.572 0 0 1-5.72-12.075c0-8.618 6.986-15.604 15.604-15.604.996 0 1.971.093 2.916.272M56.518 150.395a15.544 15.544 0 0 1 3.792 10.197c0 8.618-6.986 15.604-15.604 15.604a15.65 15.65 0 0 1-4.094-.542"/>
        <path fill="#EAEAEA" d="M52.581 160.593a7.875 7.875 0 0 1-7.875 7.875 7.874 7.874 0 0 1-7.875-7.875 7.874 7.874 0 0 1 7.875-7.875 7.875 7.875 0 0 1 7.875 7.875"/>
        <path stroke="#D82E2E" d="M52.581 160.593a7.875 7.875 0 0 1-7.875 7.875 7.874 7.874 0 0 1-7.875-7.875 7.874 7.874 0 0 1 7.875-7.875 7.875 7.875 0 0 1 7.875 7.875z"/>
        <path fill="#EAEAEA" d="M123.071 105.246h39.932V80.273h-39.932z"/>
        <path stroke="#D82E2E" d="M162.294 105.246h-39.223V87.404M163.003 85.174v11.795M125.644 80.273h30.439M150.253 34.332l-3.48 4.174 3.512 4.085-3.512 4.072 3.724 4.077.695 24.519"/>
        <path stroke="#D82E2E" d="M151.335 80.273h-16.596l1.083-53.193 7.03-7.4 7.401 7.4v3.52M140.35 40.383v34.87M87.76 69.505l20.096-5.227M83.408 39.868l24.896 5.24M98.494 24.802l14.183 7.921M173.786 70.923l11.92 10.787M178.166 60.478l24.5 7.73M177.313 42.897l17.483-2.992"/>
        <path fill="#FFF" d="M177.306 153.173c0-29.168-1.207-51.832-1.207-51.832H163.52v5.194c-4.733-5.665-16.564-19.132-19.506-19.132-3.505 0-19.128 12.847-25.734 18.416l-2.284 1.938.094 142.082c1.299.042 2.6.07 3.909.07 14.81 0 28.99-2.702 42.077-7.627v-47.7s15.229-12.24 15.229-41.409"/>
        <path stroke="#D82E2E" d="M116.212 112.244l-.743 164.452M129.18 114.79l33.114.622M133.33 145.239l26.643-.754M131.715 130.326h27.522M163.54 120.561l.972 36.294-21.245 6.042s7.965 21.49 0 30.486M117.977 106.249s21.779-18.845 26.254-18.845c4.475 0 19.29 19.13 19.29 19.13"/>
        <path stroke="#D82E2E" d="M132.254 114.79l12.039-9.544 6.138 5.648M166.501 101.341h9.598s1.423 22.665 1.423 51.832c0 29.168-15.228 41.41-15.228 41.41l-.322 74.82M21 171.5l.225-42.466H55.24"/>
    </g>
</svg>
