<svg xmlns="http://www.w3.org/2000/svg" width="240" height="288" viewBox="0 0 240 288">
    <g fill="none" fill-rule="evenodd">
        <path fill="#FFF" stroke="#D82E2E" d="M239.5 120.5H1.5v47.551c0 65.722 53.279 119 119 119 65.722 0 119-53.278 119-119V120.5z"/>
        <path fill="#FFF" d="M239.5 120c0 65.998-53.502 119.5-119.5 119.5C54.001 239.5.5 185.998.5 120 .5 54.002 54.002.5 120 .5 185.998.5 239.5 54.002 239.5 120"/>
        <path stroke="#D82E2E" d="M239.5 120c0 65.998-53.502 119.5-119.5 119.5C54.001 239.5.5 185.998.5 120 .5 54.002 54.002.5 120 .5 185.998.5 239.5 54.002 239.5 120zM239.5 120c0 65.998-53.502 119.5-119.5 119.5"/>
        <path fill="#FFF" d="M193.04 247.728l-6.428-76.157-46.14-12.284-.834-38.13h-39.276l-.834 38.13-46.14 12.284-6.428 76.157"/>
        <path fill="#FFF" d="M111.67 143.828c-6.308-2.6-12.446-9.115-14.945-13.65-2.41-4.373-7.183-28.385-6.37-34.79 1.228-9.707 8.461-19.7 14.822-23.966 6.467-4.34 22.825-4.347 29.645 0 6.46 4.117 13.594 14.259 14.824 23.967.81 6.404-3.96 30.416-6.372 34.79-2.499 4.534-8.637 11.049-14.946 13.649-2.827 1.165-13.83 1.165-16.658 0"/>
        <path stroke="#D82E2E" d="M99.931 140.866l-.402 18.421-46.14 12.284-6.43 76.157M90.83 104.232c-.486-3.798-.706-7.028-.476-8.844 1.23-9.708 8.462-19.699 14.824-23.967 6.466-4.338 22.825-4.346 29.645 0M134.11 140.406c-1.838 1.404-3.801 2.606-5.78 3.422-2.828 1.165-13.831 1.165-16.66 0-6.307-2.6-12.446-9.115-14.945-13.65-1.015-1.842-2.45-7.168-3.71-13.194M144.714 160.416l41.897 11.155 6.43 76.158M139.69 75.539c4.79 5.044 9.034 12.568 9.956 19.85.81 6.404-3.961 30.416-6.371 34.79-.787 1.428-1.936 3.053-3.337 4.69l.533 24.418"/>
        <path fill="#FFF" d="M41.364 74.703l-27.46-1.93V45.316l27.46 1.929z"/>
        <path fill="#EAEAEA" d="M198.167 179.673l-24.494 1.146v-24.493l24.494-1.147zM212.147 22.18v45.622l-41.662 3.218V25.398z"/>
        <path fill="#FFF" d="M227.074 124.086l-30.963 3.183V93.363l30.963-3.182zM69.308 184.348l-36.134-2.79v-39.569l36.134 2.791z"/>
        <path fill="#EAEAEA" d="M69.308 108.61l-35.467-2.43V67.34l35.467 2.431z"/>
        <path stroke="#D82E2E" d="M13.904 72.284V45.315l20.806 1.462M33.841 74.175l-13.048-.916M41.364 55.414v12.442M173.672 176.585v-20.26l23.121-1.082M198.167 166.49v13.183l-16.16.756M170.485 56.635V25.398l33.286-2.572M207.77 68.14l-35.841 2.77M212.147 33.119v32.09M196.11 111.886V93.364l24.022-2.47M227.074 96.504v27.582l-30.963 3.183v-6.34M33.174 172.492v-30.503l31.124 2.403M69.308 150.179v34.17l-34.554-2.67M33.841 98.183V67.34l27.666 1.896M69.308 80.169v28.44l-22.364-1.532"/>
        <path fill="#EAEAEA" d="M102.317 200.513l-24.11-.652V173.46l24.11.652z"/>
        <path stroke="#D82E2E" d="M78.207 194.426V173.46l19.212.52M102.317 179.556v20.957l-15.203-.41M22.966 102.691c-1.966 4.13-3.009 8.446-3.009 12.89 0 16.152 13.785 30.642 35.61 40.502M105.678 45.75c4.832-.566 9.835-.863 14.96-.863 12.456 0 24.196 1.756 34.505 4.857M55.567 46.6C72.25 38.456 94.02 33.53 117.835 33.53c5.549 0 10.988.267 16.277.781M39.406 165.4c11.638 8.906 27.716 15.68 46.515 19.568M160.247 172.492c30.432-8.443 51.346-23.978 51.346-44.241 0-3.563-.647-7.04-1.877-10.4M147.396 184.75c16.806-1.781 31.834-6.49 43.434-13.172"/>
    </g>
</svg>
