<svg xmlns="http://www.w3.org/2000/svg" xmlns:xlink="http://www.w3.org/1999/xlink" width="120" height="120" viewBox="0 0 120 120">
    <defs>
        <path id="prefix__a" d="M0.129 0.097L12.406 0.097 12.406 15.98 0.129 15.98z"/>
        <path id="prefix__c" d="M0 0.048L106.229 0.048 106.229 1.787 0 1.787z"/>
    </defs>
    <g fill="none" fill-rule="evenodd">
        <path fill="#C60000" d="M9.306 28.636c-1.629 0-3.019-.169-4.17-.505-1.152-.337-2.345-.814-3.58-1.432l-.422-6.485h.758l2.401 5.348c.955.702 1.881 1.172 2.78 1.41.9.24 1.826.359 2.78.359 1.882 0 3.3-.498 4.255-1.495.954-.997 1.432-2.393 1.432-4.19 0-1.348-.316-2.4-.948-3.158-.631-.758-1.53-1.433-2.695-2.022-1.166-.59-2.535-1.278-4.108-2.064-1.236-.616-2.267-1.235-3.096-1.852-.828-.618-1.453-1.34-1.874-2.17-.421-.827-.632-1.86-.632-3.095 0-1.207.372-2.365 1.116-3.474.744-1.109 1.706-2.02 2.886-2.737C7.369.358 8.632 0 9.98 0c1.236 0 2.366.155 3.39.463 1.026.31 2.086.745 3.181 1.306l.422 6.317h-.759l-1.853-5.012c-.702-.646-1.39-1.109-2.064-1.39-.674-.28-1.46-.42-2.359-.42-1.713 0-3.033.49-3.96 1.474-.926.982-1.39 2.176-1.39 3.579 0 1.067.217 1.965.653 2.695.435.73 1.102 1.39 2.001 1.979.898.59 2.036 1.222 3.412 1.895 1.685.815 3.075 1.594 4.17 2.338 1.096.744 1.902 1.593 2.422 2.547.52.955.78 2.162.78 3.622 0 1.404-.429 2.647-1.285 3.727-.857 1.081-1.945 1.937-3.265 2.569-1.32.631-2.71.947-4.17.947M23.08 28.215L23.08 27.162 26.45 26.446 26.45 2.19 23.08 1.474 23.08.421 32.347.421 32.347 1.474 28.977 2.19 28.977 13.77 41.193 2.274 37.949 1.474 37.949.421 46.29.421 46.29 1.474 43.805 1.98 31.378 13.223 45.658 26.657 48.48 27.162 48.48 28.215 43.678 28.215 28.977 14.191 28.977 26.446 32.347 27.162 32.347 28.215zM61.328 1.895H58.59V13.56h2.99c1.77 0 3.237-.54 4.403-1.621 1.164-1.08 1.748-2.45 1.748-4.106 0-1.825-.576-3.27-1.728-4.338-1.151-1.067-2.71-1.6-4.675-1.6zm-8.636 26.32v-1.053l3.37-.716V2.19l-3.37-.716V.421h8.341c2.948 0 5.272.611 6.972 1.832 1.698 1.222 2.548 2.899 2.548 5.032 0 1.685-.54 3.117-1.622 4.296-1.081 1.179-2.506 2.05-4.276 2.61l8.13 12.424 2.78.547v1.053H70.68l-8.425-13.181H58.59v11.37l3.159.758v1.053h-9.057zM8.064 55.679c-1.653 0-3.081-.337-4.284-1.01-1.204-.674-2.135-1.597-2.793-2.768C.329 50.73 0 49.398 0 47.906c0-1.155.224-2.246.674-3.273.45-1.027 1.063-1.942 1.841-2.743.779-.802 1.674-1.432 2.685-1.89 1.01-.457 2.086-.686 3.225-.686.819 0 1.509.053 2.07.157.562.105 1.064.24 1.505.41.441.168.887.364 1.336.589l.145 4.284h-.434l-1.66-3.129c-.547-.386-1.04-.666-1.481-.843-.442-.176-.935-.264-1.48-.264-1.108 0-2.103.288-2.986.866-.882.578-1.576 1.376-2.082 2.394-.506 1.02-.758 2.195-.758 3.527 0 1.491.244 2.77.734 3.837.49 1.068 1.151 1.882 1.986 2.444.834.561 1.758.842 2.768.842.834 0 1.537-.112 2.107-.337.57-.225 1.079-.49 1.528-.795l1.613-2.695h.41l-.29 3.875c-.706.353-1.46.642-2.262.866-.803.224-1.846.337-3.13.337M21.568 48.556h4.718l-2.359-5.8-2.359 5.8zm-5.488 6.882v-.385l1.516-.794 6.187-14.825h1.324l6.114 14.753 1.613.866v.385h-6.355v-.385l2.119-.842-1.782-4.332h-5.801l-1.757 4.356 2.021.818v.385H16.08zM39.478 40.879v6.257h1.829c1.267 0 2.263-.289 2.986-.866.721-.578 1.083-1.315 1.083-2.214 0-1.124-.365-1.933-1.096-2.43-.73-.498-1.777-.747-3.142-.747h-1.66zM35 55.439v-.386l1.95-.962V40.902L35 39.94v-.385h6.741c1.893 0 3.413.346 4.561 1.035 1.147.69 1.721 1.78 1.721 3.273 0 .882-.3 1.664-.903 2.346-.601.682-1.416 1.22-2.442 1.613-1.028.393-2.2.59-3.515.59h-1.685v5.679l2.214.962v.385H35zM50.719 55.438L50.719 55.053 52.693 54.091 52.693 40.902 50.719 39.94 50.719 39.555 57.146 39.555 57.146 39.94 55.196 40.902 55.196 54.091 57.146 55.053 57.146 55.438zM63.188 55.438L63.188 55.053 65.619 54.091 65.619 40.879 61.816 40.879 60.107 44.513 59.722 44.513 59.722 39.555 74.02 39.555 74.02 44.513 73.635 44.513 71.951 40.879 68.123 40.879 68.123 54.091 70.578 55.053 70.578 55.438zM80.52 48.556h4.718l-2.36-5.8-2.358 5.8zm-5.488 6.882v-.385l1.516-.794 6.187-14.825h1.324l6.114 14.753 1.612.866v.385h-6.354v-.385l2.118-.842-1.782-4.332h-5.8l-1.757 4.356 2.021.818v.385h-5.199z" transform="translate(7.714 30.857)"/>
        <g transform="translate(7.714 30.857) translate(93.823 39.458)">
            <mask id="prefix__b" fill="#fff">
                <use xlink:href="#prefix__a"/>
            </mask>
            <path fill="#C60000" d="M0.129 15.98L0.129 15.595 2.079 14.632 2.079 1.444 0.129 0.481 0.129 0.097 6.797 0.097 6.797 0.481 4.606 1.444 4.606 14.657 10.312 14.657 12.021 10.517 12.406 10.517 12.406 15.98z" mask="url(#prefix__b)"/>
        </g>
        <g transform="translate(7.714 30.857) translate(0 32.876)">
            <mask id="prefix__d" fill="#fff">
                <use xlink:href="#prefix__c"/>
            </mask>
            <path fill="#C60000" d="M58.59 1.787L0 1.787 0 0.048 58.59 0.048 106.229 0.917z" mask="url(#prefix__d)"/>
        </g>
    </g>
</svg>
