<svg xmlns="http://www.w3.org/2000/svg" width="120" height="120" viewBox="0 0 120 120">
    <g fill="none" fill-rule="evenodd" transform="translate(17.143 17.143)">
        <circle cx="42.857" cy="42.857" r="42.857" fill="#2C7DF7"/>
        <path fill="#FFF" d="M48.857 70.286c-3.986 0-6.9-.943-8.743-2.872-1.843-1.928-2.743-3.985-2.743-6.171 0-.814.172-1.5.472-2.057.3-.557.771-.986 1.328-1.329.558-.3 1.243-.471 2.058-.471.814 0 1.5.171 2.057.471.557.3.985.772 1.328 1.329.3.557.472 1.243.472 2.057 0 .986-.215 1.757-.686 2.4-.471.6-1.029 1.028-1.671 1.2.557.771 1.414 1.286 2.614 1.628 1.2.343 2.4.515 3.557.515 1.671 0 3.171-.429 4.5-1.329 1.329-.9 2.314-2.228 2.957-3.943.643-1.757.943-3.728.943-5.957 0-2.4-.343-4.457-1.071-6.171-.686-1.715-1.715-3-3.043-3.815a8.189 8.189 0 0 0-4.329-1.242c-1.028 0-2.314.428-3.814 1.285l-2.829 1.415v-1.415L54.857 28.93H37.371v17.485c0 1.457.3 2.657.943 3.557.643.943 1.629 1.415 2.957 1.415 1.029 0 2.015-.343 2.958-1.029.942-.686 1.757-1.543 2.442-2.486.086-.171.172-.342.3-.428.129-.086.258-.172.429-.172.214 0 .514.129.814.343.3.343.429.729.429 1.2-.043.3-.086.6-.172.9-.728 1.629-1.714 2.829-3 3.686a7.354 7.354 0 0 1-4.2 1.286c-3.771 0-6.428-.729-7.842-2.229-1.458-1.5-2.186-3.514-2.186-6.043V28.93h-8.957V25.67h8.957v-7.414L29.186 16.2v-1.629h5.957l2.228 1.158v9.942l23.143-.042 2.315 2.314-14.186 14.186a9.56 9.56 0 0 1 2.7-.643c1.543 0 3.257.471 5.186 1.457 1.928.943 3.428 2.271 4.457 3.943 1.028 1.671 1.714 3.257 2.014 4.8.3 1.543.471 2.914.471 4.071 0 2.743-.557 5.272-1.714 7.586-1.157 2.357-2.914 4.071-5.228 5.228-2.4 1.158-4.929 1.715-7.672 1.715"/>
    </g>
</svg>
