<svg xmlns="http://www.w3.org/2000/svg" width="120" height="120" viewBox="0 0 120 120">
    <g fill="none" fill-rule="nonzero" transform="translate(17.143 17.143)">
        <circle cx="42.857" cy="42.857" r="42.857" fill="#FFF"/>
        <path fill="#56B1FF" d="M46.286 54.198V34.813h2.505c4.88 0 9.1-3.165 10.418-7.78h-21.89c-10.418 0-12.264 7.78-12.264 7.78H38.11v29.143s8.176-2.505 8.176-9.758z"/>
        <path fill="#2C2C81" d="M70.55 69.23c7.384-7.516 10.285-18.46 7.648-28.615-1.45-5.406-4.22-10.285-8.176-14.11-.396-.395-.66-.659-1.187-1.054l-.395-.396c-.264-.264-.528-.528-.792-.66l-.395-.263-.66-.528-.395-.263-.791-.528-.528-.395c-.264-.132-.395-.264-.66-.396l-.527-.396c-.263-.131-.527-.263-.659-.395l-.528-.264-.79-.396h-.133c.66.528 1.32 1.055 1.847 1.715 11.34 11.209 11.34 29.538.131 40.879l-.131.132c-14.506 14.373-37.847 14.373-52.484 0l-1.582-1.583-.396-.527c-.264-.396-.66-.66-.923-1.055C17.67 79.12 41.011 86.769 60.132 77.01a37.797 37.797 0 0 0 9.89-7.12c.132-.133.396-.396.527-.66z"/>
        <path fill="#56B1FF" d="M24.396 65.275c-.66-.528-1.32-1.055-1.847-1.715-11.34-11.208-11.34-29.538-.131-40.879l.131-.132c14.506-14.373 37.978-14.373 52.484 0 1.055 1.055 1.978 2.11 2.901 3.165C68.044 6.594 44.571-.923 25.451 8.967c-3.56 1.714-6.858 4.088-9.627 6.857l-.66.66c-10.021 10.285-11.34 26.11-3.428 37.978 3.165 4.615 7.517 8.44 12.66 10.813z"/>
    </g>
</svg>
