<svg xmlns="http://www.w3.org/2000/svg" width="120" height="120" viewBox="0 0 120 120">
    <g fill="#160B29" fill-rule="evenodd">
        <path d="M62.56 24.33h-2.526v16.797c4.797.11 9.593-.22 12.705.146l-.22 9.939s-9.849.55-13.912.587c-3.112.036-1.904 1.76-.623 2.017 1.318.256 8.824 2.017 11.313 3.227 2.49 1.21 4.027 2.164 4.833 8.068.805 5.941-1.318 14.523-13.51 14.743h-.622v17.787h2.526c20.21 0 36.612-16.43 36.612-36.674S82.806 24.33 62.56 24.33z"/>
        <path d="M43.706 79.267l.402-10.085s11.606.44 15.34-.183c2.637-.367 1.209-1.614 1.209-1.614s-9.043-1.65-12.119-3.227c-3.038-1.577-6.553-4.804-4.65-15.22.99-5.354 6.518-7.445 12.705-7.775V24.33H33.528c-3.845 0-6.957 3.117-6.957 6.968V90.71c0 3.85 3.112 6.968 6.957 6.968H56.63V79.89c-9.007-.294-12.924-.624-12.924-.624z"/>
    </g>
</svg>
