<svg xmlns="http://www.w3.org/2000/svg" width="120" height="120" viewBox="0 0 120 120">
    <g fill="none" fill-rule="nonzero" transform="translate(17.143 17.143)">
        <circle cx="42.857" cy="42.857" r="42.857" fill="#2775C9"/>
        <path fill="#FFF" d="M40.329 27.257v-3.814c0-1.157.471-1.629 1.671-1.629h2.143c1.028 0 1.543.515 1.586 1.586v3.943c.942.3 1.885.557 2.742.9 2.743 1.157 4.415 3.3 5.1 6.171.258 1.115-.257 1.757-1.414 1.757h-2.443c-.728 0-1.243-.3-1.457-1.028-.686-2.229-2.228-3.343-4.543-3.6-1.457-.172-2.914-.129-4.243.471-1.5.643-2.271 1.8-2.314 3.429-.086 1.628.429 3.043 2.057 3.557 1.672.557 3.429.943 5.143 1.243 2.014.386 3.986.728 5.872 1.628 2.828 1.329 4.2 3.6 4.457 6.686.385 5.7-3.472 9.214-8.143 10.243a8.334 8.334 0 0 0-.857.214v3.772c0 1.285-.472 1.714-1.715 1.714h-2.057c-1.114 0-1.585-.471-1.585-1.629v-3.857c-.986-.257-2.015-.471-2.958-.814-3.6-1.243-5.657-3.814-6.428-7.457-.214-1.114.3-1.757 1.414-1.757h2.7c.686 0 1.243.3 1.372.985.685 3.643 3.214 4.543 6 4.758 1.585.085 3.128-.086 4.5-.943a4.629 4.629 0 0 0 1.928-5.486c-.3-.9-.857-1.586-1.714-1.886-1.629-.514-3.257-.9-4.929-1.328-1.885-.472-3.814-.772-5.614-1.415-3.857-1.414-5.443-4.457-4.929-8.657.472-3.9 3.3-6.643 7.458-7.543.385-.042.728-.128 1.2-.214z"/>
        <path fill="#FFF" d="M75 43.157C75.043 57 66.257 69.214 53.1 73.586c-1.457.471-2.1 0-2.1-1.543V70.2c0-1.114.343-1.629 1.414-2.057 6.043-2.357 10.672-6.343 13.929-12 5.486-9.6 4.114-22.329-3.257-30.6-2.957-3.3-6.515-5.786-10.629-7.372-.986-.385-1.414-.985-1.414-2.057v-2.143c.043-1.157.771-1.714 1.843-1.328 12.385 4.414 19.671 13.071 21.943 26.014.128.686.214 1.372.257 2.057A46.508 46.508 0 0 0 75 43.157zM10.929 45.386c0-16.157 8.957-28.457 22.2-32.7 1.114-.343 1.842.171 1.842 1.285v2.058c0 1.2-.385 1.757-1.457 2.142-3.728 1.415-7.028 3.558-9.771 6.472-5.143 5.443-7.672 11.914-7.414 19.371.214 6.9 2.828 12.857 7.585 17.829 2.7 2.786 5.872 4.843 9.515 6.214 1.157.429 1.585 1.029 1.585 2.229v1.928c0 1.243-.728 1.757-1.885 1.415-4.158-1.329-7.929-3.429-11.186-6.3C14.657 60.9 11.1 52.757 10.929 45.386z"/>
    </g>
</svg>
