<svg xmlns="http://www.w3.org/2000/svg" width="120" height="120" viewBox="0 0 120 120">
    <g fill="none" fill-rule="nonzero">
        <path fill="#1BA27A" d="M102.857 60c0 23.657-19.2 42.857-42.857 42.857S17.143 83.657 17.143 60 36.343 17.143 60 17.143s42.857 19.2 42.857 42.857"/>
        <path fill="#FFF" d="M80.1 38.743H39.514v9.814h15.429v14.4h9.771v-14.4H80.1z"/>
        <path fill="#FFF" d="M59.914 54.943c-14.314 0-25.885 2.614-25.885 5.786 0 2.828 9 5.185 20.914 5.7v20.657h9.771V66.429c12-.515 21.086-2.872 21.086-5.7 0-3.215-11.571-5.786-25.886-5.786zm0 9.557c-12.728 0-23.057-2.014-23.057-4.5s10.329-4.5 23.057-4.5c12.729 0 23.057 2.014 23.057 4.5s-10.328 4.5-23.057 4.5z"/>
    </g>
</svg>
