<?xml version="1.0" encoding="UTF-8" standalone="no"?>
<svg width="120px" height="120px" viewBox="0 0 120 120" version="1.1" xmlns="http://www.w3.org/2000/svg" xmlns:xlink="http://www.w3.org/1999/xlink">
    <!-- Generator: Sketch 49 (51002) - http://www.bohemiancoding.com/sketch -->
    <title>WageCan</title>
    <desc>Created with Sketch.</desc>
    <defs></defs>
    <g id="Page-1" stroke="none" stroke-width="1" fill="none" fill-rule="evenodd">
        <g id="WageCan" fill="#093B74">
            <g transform="translate(15.000000, 17.000000)">
                <polygon id="Fill-1" points="11.1406857 79.0707744 9.48211429 88.5822369 6.6959873 88.5822369 3.38293968 68.4928502 6.73011429 68.4928502 8.45830476 78.9015166 8.56751111 79.5524023 8.48833651 79.5524023 8.58662222 78.8987645 10.112781 68.4928502 12.6996063 68.4928502 14.2257651 78.9345425 14.3254159 79.5895564 14.2462413 79.5524023 14.3540825 78.9015166 16.0836381 68.4928502 19.4294476 68.4928502 16.1164 88.5822369 13.330273 88.5822369 11.6717016 79.0707744 11.4724 77.8956024 11.3399873 77.8956024"></polygon>
                <g id="Group-20" transform="translate(0.000000, 0.366175)">
                    <path d="M24.1755556,84.3606998 C24.1755556,85.2730406 24.4663175,85.7285229 25.0464762,85.7285229 C25.4286984,85.7285229 25.7617778,85.6445821 26.0429841,85.4739482 C26.3228254,85.3046904 26.4647937,85.0941502 26.4647937,84.8437037 L26.4647937,81.0883824 C24.9386349,81.6250534 24.1755556,82.7162846 24.1755556,84.3606998 M20.5935873,84.7955409 C20.5935873,83.8598068 20.7846984,83.0382872 21.1669206,82.3282301 C21.5491429,81.616797 22.0187302,81.0732455 22.5743175,80.6961997 C23.1299048,80.3177778 23.6868571,79.9999034 24.2424444,79.7384483 C24.7980317,79.4783692 25.2962857,79.2581965 25.7372063,79.07793 C26.1767619,78.8990397 26.419746,78.7366623 26.4647937,78.59355 L26.4647937,78.110546 L26.4647937,76.9849129 C26.4647937,76.0904611 26.1494603,75.6432353 25.5201587,75.6432353 C25.2935556,75.6432353 25.1133651,75.6803894 24.9795873,75.7560738 C24.8444444,75.8303821 24.7488889,75.9638618 24.6929206,76.1551369 C24.6355873,76.3464119 24.5973651,76.4964046 24.5741587,76.6051149 C24.5509524,76.7124491 24.5413968,76.900972 24.5413968,77.1665554 L24.5413968,77.6660723 L20.9594286,77.6660723 L20.9594286,77.0372039 C20.9594286,75.9432206 21.4194603,75.0061104 22.342254,74.221745 C23.2636825,73.4387557 24.3912381,73.046573 25.7221905,73.046573 C26.8934286,73.046573 27.9076825,73.391969 28.7622222,74.0813849 C29.618127,74.7708008 30.0467619,75.6129615 30.0467619,76.6092432 L30.0467619,81.1957166 L30.0467619,85.6225648 C30.0467619,86.5871966 30.1232063,87.4513746 30.2788254,88.2164749 L26.6968571,88.2164749 C26.5412381,88.0334563 26.4647937,87.6330171 26.4647937,87.0137813 L26.2272698,87.0137813 C26.0047619,87.3412882 25.6484762,87.6605387 25.1570476,87.9701566 C24.665619,88.2797746 24.1195873,88.4338955 23.5175873,88.4338955 C22.8200317,88.4338955 22.1579683,88.1696882 21.5313968,87.6398975 C20.9061905,87.1101069 20.5935873,86.1606119 20.5935873,84.7955409" id="Fill-2"></path>
                    <path d="M37.3431111,76.9985361 C37.3212698,76.9985361 37.3212698,76.9545015 37.3431111,76.8636803 C37.3649524,76.772859 37.3540317,76.6600205 37.3103492,76.5237886 C37.2666667,76.3889328 37.2175238,76.2527009 37.1642857,76.1178451 C37.1096825,75.9829893 37.0113968,75.8701508 36.8694286,75.7793295 C36.7288254,75.6885083 36.55,75.6430976 36.3315873,75.6430976 C36.0271746,75.6430976 35.793746,75.7559362 35.6313016,75.9829893 C35.4674921,76.2086664 35.3855873,76.4384717 35.3855873,76.6737813 L35.3855873,76.9985361 L35.3855873,81.0662275 L35.3855873,81.4446494 C35.3855873,81.5905138 35.4674921,81.7845411 35.6313016,82.0281072 C35.793746,82.2730493 36.0271746,82.3941443 36.3315873,82.3941443 C36.6578413,82.3941443 36.9076508,82.2813058 37.082381,82.0556288 C37.255746,81.8299517 37.3431111,81.6084029 37.3431111,81.3909823 L37.3431111,81.0662275 L37.3431111,76.9985361 Z M39.4658095,90.2391744 C39.4658095,89.9474455 39.3511429,89.7245206 39.1204444,89.5690236 C38.8911111,89.4135266 38.3846667,89.2814229 37.6024762,89.1727126 L35.810127,88.8988728 C35.018381,89.2814229 34.623873,89.7190162 34.623873,90.2116528 C34.623873,90.9038208 35.3337143,91.2492168 36.756127,91.2492168 C37.4359365,91.2492168 38.0570476,91.1638999 38.6208254,90.9905138 C39.1846032,90.8171278 39.4658095,90.5666813 39.4658095,90.2391744 Z M40.9250794,76.8113893 L40.9250794,81.0221929 C40.9250794,81.1130142 40.9127937,81.2437418 40.8895873,81.4157517 C40.866381,81.5877617 40.7667302,81.8822427 40.5892698,82.2991948 C40.4131746,82.716147 40.1838413,83.0876885 39.9012698,83.4138194 C39.6186984,83.7399502 39.164127,84.0344313 38.5402857,84.2958864 C37.9150794,84.5587176 37.1793016,84.6894452 36.3315873,84.6894452 C36.0490159,84.6894452 35.8428889,84.6811887 35.7118413,84.6632997 C35.4060635,84.8820963 35.2531746,85.1105255 35.2531746,85.3458352 C35.2531746,85.4916996 35.3132381,85.619675 35.4333651,85.7283853 C35.552127,85.8384717 35.776,85.9292929 36.102254,86.0022252 C36.429873,86.0751574 36.6687619,86.120568 36.8216508,86.138457 C36.9731746,86.1577221 37.3007937,86.2031328 37.8004127,86.276065 C38.4392698,86.3489972 39.0030476,86.4439467 39.4931111,86.5622896 C39.9818095,86.6820085 40.4773333,86.863651 40.9783175,87.1099693 C41.4793016,87.3549114 41.8710794,87.7016835 42.156381,88.1475333 C42.4416825,88.5947592 42.5836508,89.127302 42.5836508,89.7465378 C42.5836508,91.0950959 42.0034921,92.0707363 40.8431746,92.6720832 C39.6828571,93.2720539 38.2768254,93.5734153 36.6223492,93.5734153 C34.7849524,93.5362612 33.3953016,93.3050798 32.4547619,92.877119 C31.5128571,92.4477822 31.0419048,91.7143317 31.0419048,90.6753916 C31.0419048,89.8373591 31.9960952,89.0818914 33.9085714,88.4076124 C32.3946984,88.0979944 31.6384444,87.433348 31.6384444,86.4122969 C31.6384444,86.0118577 31.8800635,85.5976577 32.3646667,85.1683209 C32.8492698,84.7403601 33.3884762,84.4073489 33.9850159,84.1706632 C33.3584444,83.8610452 32.8629206,83.4372127 32.4998095,82.9005416 C32.1366984,82.3624945 31.9292063,81.8932514 31.8800635,81.4928122 L31.803619,80.918987 L31.803619,76.8457912 C31.803619,76.737081 31.8159048,76.599473 31.8391111,76.4357195 C31.8636825,76.271966 31.957873,75.9706046 32.1216825,75.5343874 C32.2868571,75.096794 32.5107302,74.7101156 32.7946667,74.3716001 C33.0772381,74.0358366 33.5318095,73.7303469 34.1556508,73.4565071 C34.7822222,73.1840433 35.5070794,73.0464354 36.3315873,73.0464354 C37.8713968,73.0464354 39.0508254,73.5115503 39.8671429,74.4431562 C40.9578413,73.5115503 41.8628889,73.0464354 42.5836508,73.0464354 L42.5836508,75.5619089 C41.8669841,75.5619089 41.2595238,75.6706192 40.7599048,75.8866637 L40.9250794,76.8113893 Z" id="Fill-4"></path>
                    <path d="M46.3647841,77.093348 L46.3647841,79.0872874 L48.7850698,79.0872874 L48.7850698,77.093348 C48.7850698,76.990142 48.7809746,76.8566623 48.770054,76.6929088 C48.7577683,76.5277792 48.6526571,76.3131108 48.4547206,76.0447753 C48.255419,75.7778158 47.9673873,75.64296 47.5919905,75.64296 C47.2384349,75.64296 46.9558635,75.764055 46.7456413,76.0062451 C46.535419,76.247059 46.4193873,76.489249 46.397546,76.731439 L46.3647841,77.093348 Z M48.7850698,82.8591217 L51.9042762,82.8591217 L51.9042762,84.5805973 C51.9042762,84.6906836 51.8919905,84.8324199 51.8701492,85.0044298 C51.8483079,85.1778158 51.7595778,85.4833055 51.6053238,85.9208988 C51.4510698,86.3571161 51.2408476,86.7492988 50.9746571,87.0960709 C50.7098317,87.4428429 50.2784667,87.7510848 49.681927,88.0249246 C49.0840222,88.2987645 48.3769111,88.4349963 47.5592286,88.4349963 C46.7633873,88.4349963 46.0658317,88.2987645 45.4692921,88.0249246 C44.8727524,87.7510848 44.4413873,87.4235778 44.1751968,87.0410277 C43.9103714,86.6584775 43.7001492,86.2759274 43.5458952,85.8933773 C43.3902762,85.5108271 43.301546,85.1819441 43.2797048,84.9094803 L43.2469429,84.4994086 L43.2469429,76.9818855 C43.2469429,76.8731752 43.2578635,76.7328151 43.2797048,76.5594291 C43.301546,76.386043 43.3902762,76.0709208 43.5458952,75.6154384 C43.7001492,75.1613322 43.9158317,74.7595169 44.1929429,74.4127448 C44.4686889,74.0673489 44.9055143,73.7536027 45.502054,73.4701303 C46.0999587,73.188034 46.7961492,73.0476738 47.5919905,73.0476738 C48.409673,73.0476738 49.1113238,73.1797775 49.6983079,73.4426087 C50.283927,73.7081921 50.7152921,74.0301947 50.9924032,74.4127448 C51.2681492,74.7966711 51.4838317,75.1737169 51.6380857,75.5480105 C51.7937048,75.9209281 51.8701492,76.2443068 51.8701492,76.5181467 L51.9042762,76.9006968 L51.9042762,81.2463563 L46.3647841,81.2463563 L46.3647841,84.38657 L46.3647841,84.5448192 C46.3647841,84.6149993 46.3866254,84.7347182 46.4303079,84.9012238 C46.4753556,85.0691055 46.535419,85.2135939 46.6132286,85.3374411 C46.6910381,85.4599122 46.8179905,85.5741268 46.9940857,85.6800849 C47.171546,85.786043 47.3708476,85.8383341 47.5919905,85.8383341 C47.9673873,85.8383341 48.255419,85.7213673 48.4547206,85.4888098 C48.6526571,85.2548763 48.753673,85.0181906 48.753673,84.7760006 L48.7850698,84.4140916 L48.7850698,82.8591217 Z" id="Fill-6"></path>
                    <path d="M60.1615048,81.3283707 L63.743473,81.3283707 L63.743473,84.0887864 C63.743473,84.1974967 63.7325524,84.3529937 63.707981,84.5539013 C63.6847746,84.754809 63.5837587,85.1057093 63.4062984,85.6052262 C63.2302032,86.1074952 62.9817587,86.5492168 62.6623302,86.9317669 C62.3442667,87.3143171 61.8364571,87.6610892 61.1402667,87.9707071 C60.4440762,88.280325 59.6427746,88.4344459 58.7363619,88.4344459 C57.8285841,88.4344459 57.0491238,88.2844532 56.397981,87.9844679 C55.745473,87.6831064 55.2690603,87.3239496 54.971473,86.9042454 C54.6725206,86.4859171 54.4404571,86.0607085 54.2752825,85.6327478 C54.1087429,85.204787 54.0145524,84.8456302 53.9927111,84.5539013 L53.9599492,84.0887864 L53.9599492,72.2545015 C53.9599492,72.1444152 53.9695048,71.9902942 53.9927111,71.7893866 C54.0145524,71.588479 54.1087429,71.2375787 54.2752825,70.7366857 C54.4404571,70.2357927 54.6725206,69.7940711 54.971473,69.411521 C55.2690603,69.0289709 55.745473,68.6835749 56.397981,68.3725809 C57.0491238,68.062963 57.8285841,67.908842 58.7363619,67.908842 C59.6427746,67.908842 60.4440762,68.0588347 61.1402667,68.3588201 C61.8364571,68.6601815 62.3442667,69.0193383 62.6623302,69.4390426 C62.9817587,69.8587469 63.2302032,70.2825794 63.4062984,70.7105402 C63.5837587,71.138501 63.6847746,71.5072903 63.709346,71.8169082 L63.743473,72.2545015 L63.743473,75.0149173 L60.1615048,75.0149173 L60.1615048,72.0756112 C60.1396635,72.0756112 60.1396635,72.0233202 60.1615048,71.9159859 C60.183346,71.8100278 60.1669651,71.6793002 60.1123619,71.5224272 C60.0563937,71.3683063 59.9895048,71.2128093 59.9130603,71.0573123 C59.8352508,70.9018153 59.7028381,70.7724638 59.5144571,70.6651296 C59.3274413,70.5577953 59.0885524,70.5041282 58.8018857,70.5041282 C58.4264889,70.5041282 58.1329968,70.6321036 57.9227746,70.8880545 C57.7125524,71.1426292 57.5965206,71.3930757 57.5746794,71.6380179 L57.5419175,72.0357049 L57.5419175,84.3075831 C57.5419175,84.4217977 57.5528381,84.5635339 57.5746794,84.7327917 C57.5965206,84.9034256 57.7125524,85.1304787 57.9227746,85.4139511 C58.1329968,85.6974235 58.4264889,85.8377836 58.8018857,85.8377836 C59.2441714,85.8377836 59.581346,85.7070561 59.8134095,85.4456009 C60.045473,85.1841458 60.1615048,84.9171864 60.1615048,84.6460987 L60.1615048,84.2676768 L60.1615048,81.3283707 Z" id="Fill-8"></path>
                    <path d="M68.7186413,84.3606998 C68.7186413,85.2730406 69.0094032,85.7285229 69.5895619,85.7285229 C69.9717841,85.7285229 70.3048635,85.6445821 70.5860698,85.4739482 C70.8659111,85.3046904 71.0078794,85.0941502 71.0078794,84.8437037 L71.0078794,81.0883824 C69.4817206,81.6250534 68.7186413,82.7162846 68.7186413,84.3606998 M65.136673,84.7955409 C65.136673,83.8598068 65.3277841,83.0382872 65.7100063,82.3282301 C66.0922286,81.616797 66.5618159,81.0732455 67.1174032,80.6961997 C67.6729905,80.3177778 68.2299429,79.9999034 68.7855302,79.7384483 C69.3411175,79.4783692 69.8393714,79.2581965 70.278927,79.07793 C70.7198476,78.8990397 70.9614667,78.7366623 71.0078794,78.59355 L71.0078794,78.110546 L71.0078794,76.9849129 C71.0078794,76.0904611 70.692546,75.6432353 70.0632444,75.6432353 C69.8366413,75.6432353 69.6564508,75.6803894 69.522673,75.7560738 C69.3875302,75.8303821 69.2919746,75.9638618 69.2360063,76.1551369 C69.178673,76.3464119 69.1404508,76.4964046 69.1172444,76.6051149 C69.0940381,76.7124491 69.0844825,76.900972 69.0844825,77.1665554 L69.0844825,77.6660723 L65.5011492,77.6660723 L65.5011492,77.0372039 C65.5011492,75.9432206 65.962546,75.0061104 66.8853397,74.221745 C67.8067683,73.4387557 68.9343238,73.046573 70.2652762,73.046573 C71.4365143,73.046573 72.4507683,73.391969 73.3053079,74.0813849 C74.1612127,74.7708008 74.5898476,75.6129615 74.5898476,76.6092432 L74.5898476,81.1957166 L74.5898476,85.6225648 C74.5898476,86.5871966 74.6662921,87.4513746 74.8219111,88.2164749 L71.2399429,88.2164749 C71.0843238,88.0334563 71.0078794,87.6330171 71.0078794,87.0137813 L70.7703556,87.0137813 C70.5478476,87.3412882 70.1915619,87.6605387 69.7001333,87.9701566 C69.2087048,88.2797746 68.662673,88.4338955 68.060673,88.4338955 C67.3631175,88.4338955 66.701054,88.1696882 66.0744825,87.6398975 C65.4492762,87.1101069 65.136673,86.1606119 65.136673,84.7955409" id="Fill-10"></path>
                    <path d="M81.3689683,75.6433729 C81.1723968,75.6433729 80.9894762,75.7025443 80.8161111,75.8222632 C80.641381,75.9419821 80.5103333,76.0561968 80.4256984,76.1662831 L80.2946508,76.3589343 L80.2946508,88.2166125 L76.7113175,88.2166125 L76.7113175,73.2655072 L80.2946508,73.2655072 L80.2946508,74.4805856 L80.7956349,74.0828986 C81.1300794,73.8173152 81.4986508,73.5778773 81.8999841,73.3659611 C82.3026825,73.1526687 82.6808095,73.0467106 83.0384603,73.0467106 C83.9121111,73.0467106 84.581,73.3522003 85.0410317,73.9618035 C85.5024286,74.5727829 85.733127,75.2429337 85.733127,75.9708798 L85.733127,88.2166125 L82.1511587,88.2166125 L82.1511587,76.3038911 C82.1511587,75.8635456 81.8904286,75.6433729 81.3689683,75.6433729" id="Fill-12"></path>
                    <path d="M38.3205079,30.36994 C37.5410476,30.36994 36.8353016,29.9006968 36.5295238,29.178255 L35.2900317,26.2554619 L25.0655873,2.13278583 C24.5536825,1.09246962 23.6718413,0.987887571 23.392,0.983759332 L10.2735873,0.983759332 L3.55057143,0.983759332 L2.90898413,0.983759332 L1.31047619,0.983759332 L0,0.983759332 L0,3.62445616 L1.31047619,3.62445616 L2.90898413,3.62445616 L3.52053968,3.62445616 C4.23720635,3.62445616 4.88425397,4.05241692 5.17228571,4.71293515 L26.8825079,54.6852672 C28.0946984,57.4773327 32.0466032,57.4154092 33.1727937,54.5861894 L34.7494603,50.6203279 L34.7644762,50.6533538 L42.3447619,31.5960269 C42.5781905,31.009817 42.1495556,30.36994 41.521619,30.36994 L38.3205079,30.36994 Z" id="Fill-14"></path>
                    <path d="M72.3221778,30.36994 C71.5427175,30.36994 70.8369714,29.9006968 70.5311937,29.178255 L69.2930667,26.2554619 L69.2917016,26.2554619 L59.0672571,2.13278583 C58.5567175,1.09246962 57.6735111,0.987887571 57.3936698,0.983759332 L44.2752571,0.983759332 L37.5536063,0.983759332 L36.910654,0.983759332 L35.312146,0.983759332 L34.0016698,0.983759332 L34.0016698,3.62445616 L35.312146,3.62445616 L36.910654,3.62445616 L37.5222095,3.62445616 C38.2388762,3.62445616 38.8859238,4.05241692 39.1739556,4.71293515 L60.8841778,54.6852672 C62.0977333,57.4773327 66.048273,57.4154092 67.1744635,54.5861894 L68.7511302,50.6203279 L68.766146,50.6533538 L76.3464317,31.5960269 C76.5798603,31.009817 76.1512254,30.36994 75.5232889,30.36994 L72.3221778,30.36994 Z" id="Fill-16"></path>
                    <path d="M74.1148,0.983071293 L69.2319111,0.983071293 L68.765054,0.983071293 L67.6047365,0.983071293 L66.7092444,0.983071293 L66.7092444,2.90270239 L67.6047365,2.90270239 L68.765054,2.90270239 L69.2100698,2.90270239 C69.7301651,2.90270239 70.2011175,3.2123203 70.4099746,3.6925721 L76.4122286,17.5084117 C77.0196889,18.9065086 78.9963238,18.8748587 79.5587365,17.4588728 L85.5036571,2.51327185 C85.7957841,1.7798214 85.260673,0.983071293 84.4771175,0.983071293 L74.1148,0.983071293 Z" id="Fill-18"></path>
                </g>
            </g>
        </g>
    </g>
</svg>