<svg xmlns="http://www.w3.org/2000/svg" width="64" height="64" viewBox="0 0 64 64">
    <g fill="none" fill-rule="evenodd">
        <path fill="#FFF" d="M-622-267H818v2576H-622z"/>
        <path stroke="#D82E2E" d="M23.263 36.916l9.619 18.563M41.423 30.756L32.88 55.478l24.15-9.224M41.423 30.756l-27.52-12.409M10.52 46.254l3.383-27.907L29.387 3.842"/>
        <path stroke="#D82E2E" d="M13.903 18.347l28.698-7.877 14.905 20.286"/>
        <path fill="#D82E2E" d="M54.825 44.049a3.12 3.12 0 1 1 4.411 4.411 3.12 3.12 0 0 1-4.41-4.411M21.057 34.71a3.12 3.12 0 1 1 4.411 4.412 3.12 3.12 0 0 1-4.41-4.411"/>
        <path fill="#EAEAEA" d="M6.278 42.012a6 6 0 1 1 8.485 8.485 6 6 0 0 1-8.485-8.485"/>
        <path fill="#D82E2E" d="M27.182 1.637a3.12 3.12 0 1 1 4.411 4.412 3.12 3.12 0 0 1-4.41-4.412M55.3 28.551a3.12 3.12 0 1 1 4.411 4.412 3.12 3.12 0 0 1-4.41-4.412"/>
        <path fill="#FFF" d="M28.285 50.882a6.498 6.498 0 0 1 9.192 0 6.498 6.498 0 0 1 0 9.192 6.5 6.5 0 0 1-9.192-9.192"/>
        <path stroke="#D82E2E" d="M28.285 50.882a6.498 6.498 0 0 1 9.192 0 6.498 6.498 0 0 1 0 9.192 6.5 6.5 0 0 1-9.192-9.192z"/>
        <path fill="#EAEAEA" d="M37.18 26.514a6 6 0 1 1 8.485 8.485 6 6 0 0 1-8.485-8.485"/>
        <path fill="#FFF" d="M7.79 12.234a8.647 8.647 0 1 1 12.227 12.229A8.647 8.647 0 0 1 7.79 12.233"/>
        <path stroke="#D82E2E" d="M7.79 12.234a8.647 8.647 0 1 1 12.227 12.229A8.647 8.647 0 0 1 7.79 12.233z"/>
        <path fill="#FFF" d="M42.601 5.47a5 5 0 1 1-.001 10.001 5 5 0 0 1 .001-10"/>
        <path stroke="#D82E2E" d="M42.601 5.47a5 5 0 1 1-.001 10.001 5 5 0 0 1 .001-10z"/>
    </g>
</svg>
