<svg xmlns="http://www.w3.org/2000/svg" width="64" height="64" viewBox="0 0 64 64">
    <g fill="none" fill-rule="evenodd">
        <path fill="#FFF" d="M-622-402H818v2576H-622z"/>
        <path fill="#FFF" stroke="#D82E2E" d="M60.5 32c0 15.74-12.76 28.5-28.5 28.5S3.5 47.74 3.5 32 16.26 3.5 32 3.5 60.5 16.26 60.5 32z"/>
        <path fill="#EAEAEA" d="M37.383 41.304c0-1.322-.417-2.399-1.25-3.23-.835-.833-2.266-1.608-4.293-2.326-3.982-1.32-6.934-2.794-8.853-4.417-1.919-1.624-2.879-3.912-2.879-6.865 0-2.74.964-4.988 2.893-6.742 1.927-1.754 4.525-2.786 7.79-3.096V9.014h4.278v5.687c3.14.425 5.61 1.62 7.412 3.586 1.804 1.966 2.687 4.523 2.651 7.672l-.08.122H37.41c0-1.925-.44-3.409-1.319-4.454-.878-1.043-2.063-1.566-3.55-1.566-1.544 0-2.697.404-3.459 1.212-.763.807-1.143 1.88-1.143 3.218 0 1.272.4 2.305 1.196 3.095.8.792 2.265 1.571 4.4 2.338 3.964 1.42 6.906 2.937 8.826 4.551 1.918 1.615 2.878 3.876 2.878 6.78 0 2.822-.963 5.085-2.892 6.791-1.928 1.704-4.534 2.712-7.817 3.022v5.198h-4.277v-5.173c-3.355-.31-6.127-1.39-8.315-3.244-2.189-1.85-3.247-4.57-3.175-8.16l.054-.123h7.642c0 2.187.555 3.753 1.668 4.7 1.111.945 2.511 1.418 4.197 1.418 1.632 0 2.883-.395 3.754-1.187.87-.792 1.305-1.855 1.305-3.193"/>
        <path fill="#D82E2E" d="M34.481 33.01a2.481 2.481 0 1 1-4.962 0 2.481 2.481 0 0 1 4.962 0"/>
        <path stroke="#D82E2E" d="M11.383 22.301L32 33.011l16.716-1.78"/>
    </g>
</svg>
