<svg xmlns="http://www.w3.org/2000/svg" width="64" height="64" viewBox="0 0 64 64">
    <g fill="none" fill-rule="evenodd">
        <path fill="#FFF" d="M-622-536H818v2576H-622z"/>
        <path fill="#EAEAEA" d="M39.267 52.355L10.334 29.867l14.4-18.524L53.664 33.83z"/>
        <path fill="#FFF" d="M58.19 43.047c0 6.479-5.252 11.73-11.731 11.73-6.48 0-11.731-5.251-11.731-11.73 0-6.48 5.252-11.731 11.73-11.731 6.48 0 11.732 5.252 11.732 11.73"/>
        <path stroke="#D82E2E" d="M58.19 43.047c0 6.479-5.252 11.73-11.731 11.73-6.48 0-11.731-5.251-11.731-11.73 0-6.48 5.252-11.731 11.73-11.731 6.48 0 11.732 5.252 11.732 11.73zM39.162 43.047h14.595"/>
        <path fill="#FFF" d="M29.272 20.402c0 6.479-5.252 11.73-11.731 11.73S5.81 26.882 5.81 20.403c0-6.48 5.252-11.731 11.731-11.731s11.731 5.252 11.731 11.73"/>
        <path stroke="#D82E2E" d="M29.272 20.402c0 6.479-5.252 11.73-11.731 11.73S5.81 26.882 5.81 20.403c0-6.48 5.252-11.731 11.731-11.731s11.731 5.252 11.731 11.73zM11.12 20.402h12.842M17.541 13.981v12.841M51.292 6.702l-38.369 50.84"/>
    </g>
</svg>
