<svg xmlns="http://www.w3.org/2000/svg" width="320" height="486" viewBox="0 0 320 486">
    <g fill="none" fill-rule="evenodd">
        <g stroke="#D82E2E">
            <path d="M1.5 120.404V104.72h83.698v53.46M49.91 188.418H1.5v-57.101M319.5 107.072v63.517h-59.31"/>
        </g>
        <path stroke="#D82E2E" d="M247.635 135.283v-36.56h64.193M97.408 207.746H58.185v-31.789M70.888 164.77h30.322v37.054M113.675 155.767V119.57h43.269M168.345 122.685v38.579h-46.877M198.35 176.696v36.326h-63.43v-40.85h53.58M210.332 183.738V144.03h39.896M253.356 154.12v32.935h-37.043M307.937 150.032a7.521 7.521 0 1 0-15.042 0 7.521 7.521 0 0 0 15.042 0z"/>
        <path stroke="#D82E2E" d="M276.98 119.212a7.52 7.52 0 1 0-15.042 0 7.52 7.52 0 0 0 15.041 0zM307.024 111.692l-20.062 20.062M286.962 119.871v11.882h11.883M261.94 156.777L282 136.715M282.002 148.597v-11.882h-11.883M67.585 129.965c0 5.384-4.365 9.75-9.75 9.75-5.384 0-9.75-4.366-9.75-9.75s4.366-9.75 9.75-9.75c5.385 0 9.75 4.366 9.75 9.75zM41.17 126.812h-8.394a6.794 6.794 0 0 0-6.794 6.795v9.654"/>
        <path stroke="#D82E2E" d="M20.959 138.238l5.023 5.023 5.023-5.023M19.113 160.84c0-5.386 4.365-9.75 9.75-9.75a9.75 9.75 0 0 1 9.75 9.75c0 5.383-4.366 9.75-9.75 9.75-5.385 0-9.75-4.367-9.75-9.75zM45.528 163.992h8.394a6.794 6.794 0 0 0 6.794-6.794v-9.654"/>
        <path stroke="#D82E2E" d="M65.74 152.566l-5.024-5.023-5.024 5.023M213.931 378.356l-11.998-23.03 62.776-29.73v-89.054M100.855 378.356l11.998-23.03-62.776-29.73v-89.054M58.185 226.302h199.273"/>
        <path stroke="#D82E2E" d="M104.03 325.794c-9.473-4.665-28.68-16.628-30.276-37.511-1.268-16.593-1.29-31.928-1.29-31.928l36.781-12.666 30.786 10.602M145.982 259.518c-.092 5.639-.374 17.344-1.247 28.765-1.777 23.26-25.406 35.455-33.093 38.823"/>
        <path stroke="#D82E2E" d="M80.028 262.33l29.212-10.06 24.88 8.569M107.963 318.523c-8.56-3.52-25.643-14.249-26.91-30.834-1.007-13.179-.952-19.35-.952-19.35M138.418 265.543c-.072 4.478-.297 13.075-.99 22.146-1.224 16.02-15.497 25.43-23.25 29.392M99.596 295.672a15.51 15.51 0 0 1-5.889-12.178c0-8.58 6.957-15.537 15.538-15.537 2.144 0 4.188.435 6.046 1.221M122.128 274.807a15.46 15.46 0 0 1 2.653 8.687c0 8.581-6.956 15.537-15.536 15.537-2.001 0-3.914-.379-5.671-1.068"/>
        <path stroke="#D82E2E" d="M101.561 283.192l5.217 5.046 11.33-10.128M162.187 192.597c0 5.096-4.132 9.227-9.228 9.227a9.227 9.227 0 0 1-9.226-9.227 9.227 9.227 0 0 1 9.226-9.226c5.096 0 9.228 4.13 9.228 9.226zM163.044 184.096a9.199 9.199 0 0 1 3.592-.725 9.227 9.227 0 0 1 9.227 9.227 9.227 9.227 0 0 1-9.227 9.227 9.199 9.199 0 0 1-3.592-.725M176.72 184.096a9.199 9.199 0 0 1 3.591-.725 9.227 9.227 0 0 1 9.227 9.227 9.227 9.227 0 0 1-9.227 9.227 9.199 9.199 0 0 1-3.591-.725"/>
        <path fill="#EAEAEA" d="M183.173 340.576a9.227 9.227 0 0 1-9.227 9.227 9.227 9.227 0 0 1-9.227-9.227 9.227 9.227 0 0 1 9.227-9.227 9.227 9.227 0 0 1 9.227 9.227M223.313 98.722a9.228 9.228 0 1 1-18.455-.001 9.228 9.228 0 0 1 18.455.001M149.7 97.595a9.227 9.227 0 1 1-9.227-9.227 9.227 9.227 0 0 1 9.227 9.227M151.419 363.538a9.227 9.227 0 0 1-9.227 9.227 9.227 9.227 0 0 1-9.227-9.227 9.227 9.227 0 0 1 9.227-9.227 9.227 9.227 0 0 1 9.227 9.227M167.6 315.482a6.834 6.834 0 1 1-13.67 0 6.834 6.834 0 0 1 13.67 0M203.49 131.45a6.834 6.834 0 1 1-13.67 0 6.834 6.834 0 0 1 13.67 0M111.077 92.04a6.834 6.834 0 1 1-13.669 0 6.834 6.834 0 0 1 13.669 0M159.157 64.946a6.834 6.834 0 1 1-13.669-.001 6.834 6.834 0 0 1 13.669 0M180.22 384.934c0 6.721-5.447 12.17-12.17 12.17-6.72 0-12.169-5.449-12.169-12.17 0-6.72 5.448-12.169 12.17-12.169 6.722 0 12.17 5.448 12.17 12.17"/>
        <path stroke="#D82E2E" d="M220.15 408.753v15.51h-28.24v-4.794M191.91 433.58h28.24v-9.317h-28.24zM218.554 442.897H191.91v-9.317h28.24v5.117M220.15 448.055v4.16h-28.24v-9.318h26.643"/>
        <path stroke="#D82E2E" d="M191.91 461.532h28.24v-9.317h-28.24zM191.91 470.849h28.24v-9.317h-28.24zM191.91 476.115v-5.266h28.24v9.317h-18.477"/>
        <path fill="#EAEAEA" d="M220.15 408.753c0 4.35-6.32 7.878-14.12 7.878-7.798 0-14.12-3.527-14.12-7.878 0-4.352 6.322-7.88 14.12-7.88 7.8 0 14.12 3.528 14.12 7.88"/>
        <path stroke="#EAEAEA" d="M220.15 408.753c0 4.35-6.32 7.878-14.12 7.878-7.798 0-14.12-3.527-14.12-7.878 0-4.352 6.322-7.88 14.12-7.88 7.8 0 14.12 3.528 14.12 7.88z"/>
        <path stroke="#D82E2E" d="M122.56 411.499v15.51H94.32v-4.794M94.32 436.327h28.24v-9.317H94.32zM94.32 445.644h28.24v-9.317H94.32zM121.48 454.96H94.32v-9.316h28.24v4.025M122.56 457.705v6.573H94.32v-9.318h27.16M94.32 469.544v-5.266h28.24v9.317h-20.102"/>
        <path fill="#EAEAEA" d="M122.56 411.499c0 4.35-6.322 7.878-14.12 7.878-7.799 0-14.12-3.527-14.12-7.878s6.321-7.878 14.12-7.878c7.798 0 14.12 3.527 14.12 7.878"/>
        <path stroke="#EAEAEA" d="M122.56 411.499c0 4.35-6.322 7.878-14.12 7.878-7.799 0-14.12-3.527-14.12-7.878s6.321-7.878 14.12-7.878c7.798 0 14.12 3.527 14.12 7.878z"/>
        <path stroke="#D82E2E" d="M156.078 433.705h-25.625v-4.794M158.693 418.195v12.582M153.93 443.022h-23.478v-9.317h25.625M153.93 452.34h-23.478v-9.317h23.478M153.93 461.657h-23.478v-9.317h23.478M153.93 470.974h-15.714"/>
        <path stroke="#D82E2E" d="M130.453 465.16v-3.504h23.478"/>
        <path fill="#EAEAEA" d="M158.693 418.195c0 4.35-6.322 7.878-14.12 7.878-7.798 0-14.12-3.527-14.12-7.878s6.322-7.878 14.12-7.878c7.798 0 14.12 3.527 14.12 7.878"/>
        <path stroke="#EAEAEA" d="M158.693 418.195c0 4.35-6.322 7.878-14.12 7.878-7.798 0-14.12-3.527-14.12-7.878s6.322-7.878 14.12-7.878c7.798 0 14.12 3.527 14.12 7.878z"/>
        <path stroke="#D82E2E" d="M229.428 474.481h37.16M229.428 480.594h19.333M43.353 469.429H84.09M64.296 463.317h19.39M87.514 482.467h61.606M113.484 29.454l-77.344.944M194.512 47.075l-32.41-16.434M192.52 50.552l-3.024 4.195s-39.182-18.86-52.029-18.86c-5.798 0-18.672 17.05-23.825 21.62l-8.116-6.01s13.891-17.615 16.232-30.099M205.453 32.712l-38.045-11.314M204.644 35.789l-1.37 5.217-41.136-10.364M201.57 15.068l-46.16-4.476s-16.106-5.973-28.5-5.973c-27.858 0-90.77-.975-90.77-.975M201.259 18.417l-.402 4.328-33.45-1.347"/>
        <path stroke="#D82E2E" d="M191.422 5.68l.764 3.53-12.6 3.726M157.22 10.767l33.51-8.282M169.471 80.362l4.005 23.358M183.586 73.354l13.069 34.406M206.262 59.247l29.684 28.213M125.834 73.354l-7.038 27.369M98.384 67.71L85.542 86.036M90.056 58.046L61.683 87.461M215.909 52.936l20.037 14.773M222.793 259.692c-1.357 2.12-.522 4.459 3.323 4.525 6.438.11 14.067-8.066 8.784-10.49-7.075-3.244-8.337 10.769-2.524 12.179C237.064 267.043 244 263.7 244 263.7M214.355 263.535c4.668.947 6.46-1.11 8.438-3.844M157.06 265.857c8.88-.35 24.105-10.04 18.194-14.097-5.045-3.462-11.867 10.92-5.093 13.609 6.582 2.613 17.022-5.124 13.531-7.652-3.49-2.528-8.019 6.063-4.455 8.05 2.816 1.57 10.448-2.301 10.448-2.301M210.428 290.439c13.823-1.157 22.137-12.887 16.482-13.595-7.334-.917-11.85 14.938-4.268 14.938 6.912 0 10.585-5.427 10.585-5.427s-3.154 5.52 1.138 5.932c5.781.555 13.823-8.07 9.695-8.963-3.716-.804-4.738 3.877-3.57 5.908 1.168 2.033 4.438 2.798 8.456 1.124M179.446 287.127c-2.263 3.322 2.874 4.343 8.003 2.738M159.045 290.49c10.595 0 19.976-8.036 15.893-9.831-5.073-2.23-10.827 8.269-2.508 9.428 2.485.346 5.387-.837 7.016-2.96M192.743 285.42h12.079M198.783 279.38v12.079M197.616 254.659l10.065 10.065M207.681 254.659l-10.065 10.065M186.134 310.086h10.793M186.134 315.482h10.793M203.612 317.544c5.255.544 13.82-6.632 9.444-8.969-4.375-2.337-6.835 7.791-.565 8.88 7.04 1.22 21.735-8.339 15.52-12.65-6.163-4.276-12.258 10.112-5.19 12.8 4.013 1.526 9.332-1.51 11.144-5.044-.803 2.718 2.084 6.07 5.617 4.893M241.17 400.058l20.856-19.66M250.755 419.377l33.414-12.575M256.375 432.415l21.536-3.504M55.573 376.847l18.418 13.381M25.433 401.837l36.2 11.178M32.311 424.45l27.663 4.46M79.698 174.164l3.93 7.962 8.786 1.277-6.358 6.198 1.501 8.75-7.859-4.131-7.859 4.132 1.501-8.751-6.359-6.198 8.787-1.277zM123.732 129.965l18.483 18.483M144.906 152.656h-22.145v-16.404M160.705 129.368v13.767h-13.686M144.594 140.345v-13.321H157.9M222.033 161.805h23.679M219.391 170.105h23.68M224.443 176.566l6.6-21.481M232.743 176.566l6.599-21.481M182.17 441.79v15.51h-28.24v-6.781M153.931 466.618h28.24v-9.317h-28.24zM153.931 475.935h28.24v-9.317h-28.24zM153.93 481.201v-5.266h28.24v9.317h-20.1"/>
        <path fill="#EAEAEA" d="M182.17 441.79c0 4.352-6.32 7.879-14.12 7.879-7.797 0-14.12-3.527-14.12-7.88 0-4.35 6.323-7.877 14.12-7.877 7.8 0 14.12 3.527 14.12 7.878"/>
        <path stroke="#EAEAEA" d="M182.17 441.79c0 4.352-6.32 7.879-14.12 7.879-7.797 0-14.12-3.527-14.12-7.88 0-4.35 6.323-7.877 14.12-7.877 7.8 0 14.12 3.527 14.12 7.878z"/>
    </g>
</svg>
