<svg xmlns="http://www.w3.org/2000/svg" width="140" height="94" viewBox="0 0 140 94">
    <g fill="none" fill-rule="evenodd">
        <path fill="#FFF" d="M-370-1323h1440v2576H-370z"/>
        <path fill="#EAEAEA" d="M41.438 73.285h57.123c14.852 0 26.892-12.04 26.892-26.892s-12.04-26.89-26.892-26.89H41.438c-14.852 0-26.892 12.038-26.892 26.89s12.04 26.892 26.892 26.892"/>
        <path fill="#FFF" d="M36.383 39.457h38.68V8.537h-38.68z"/>
        <path stroke="#D82E2E" d="M36.383 39.457h38.68V8.537h-38.68z"/>
        <path fill="#FFF" d="M50.245 74.822l3.057-2.75-3.004-3.92-.875-28.695h12.6l-.821 40.386-5.338 5.62-5.62-5.62z"/>
        <path stroke="#D82E2E" d="M50.245 74.822l3.057-2.75-3.004-3.92-.875-28.695h12.6l-.821 40.386-5.338 5.62-5.62-5.62zM55.723 66.685V39.456M45.58 23.927l6.384 6.348 13.902-12.556"/>
        <path fill="#FFF" d="M1.727 85.463h34.656v-30.73H1.727z"/>
        <path stroke="#D82E2E" d="M1.727 85.463h34.656v-30.73H1.727zM8.27 54.732v-8.165c0-5.957 4.829-10.785 10.785-10.785 5.957 0 10.785 4.828 10.785 10.785v8.165"/>
        <path stroke="#D82E2E" d="M8.913 69.467l6.383 6.348L29.198 63.26"/>
        <path fill="#FFF" d="M122.496 23.595c0 9.945-8.063 18.006-18.007 18.006S86.483 33.54 86.483 23.595 94.545 5.589 104.49 5.589s18.007 8.06 18.007 18.006"/>
        <path stroke="#D82E2E" d="M122.496 23.595c0 9.945-8.063 18.006-18.007 18.006S86.483 33.54 86.483 23.595 94.545 5.589 104.49 5.589s18.007 8.06 18.007 18.006z"/>
        <path stroke="#D82E2E" d="M95.375 24.001l6.17 6.136 13.436-12.136"/>
        <path fill="#FFF" d="M137.241 88.89H71.738l2.311-25.436c.921-10.144 9.425-17.91 19.611-17.91h21.658c10.186 0 18.69 7.766 19.611 17.91l2.312 25.437z"/>
        <path stroke="#D82E2E" d="M137.241 88.89H71.738l2.311-25.436c.921-10.144 9.425-17.91 19.611-17.91h21.658c10.186 0 18.69 7.766 19.611 17.91l2.312 25.437z"/>
        <path fill="#FFF" d="M97.102 57.373l-3.441-11.83h21.658l-3.442 11.83-7.387-7.058z"/>
        <path stroke="#D82E2E" d="M97.102 57.373l-3.441-11.83h21.658l-3.442 11.83-7.387-7.058z"/>
        <path fill="#D82E2E" d="M105.72 62.052a1.23 1.23 0 1 1-2.462.001 1.23 1.23 0 0 1 2.462 0M105.72 69.588a1.23 1.23 0 1 1-2.462 0 1.23 1.23 0 0 1 2.462 0M105.72 77.124a1.23 1.23 0 1 1-2.46 0 1.23 1.23 0 0 1 2.46 0"/>
    </g>
</svg>
