<svg xmlns="http://www.w3.org/2000/svg" width="140" height="94" viewBox="0 0 140 94">
    <g fill="none" fill-rule="evenodd">
        <path fill="#FFF" d="M-640-1323H800v2576H-640z"/>
        <path fill="#EAEAEA" d="M41.438 73.891h57.123c14.852 0 26.892-12.039 26.892-26.89 0-14.853-12.04-26.892-26.892-26.892H41.438C26.586 20.11 14.546 32.15 14.546 47c0 14.852 12.04 26.891 26.892 26.891"/>
        <path fill="#FFF" d="M117.817 69.7a8.612 8.612 0 1 1-17.223-.001 8.612 8.612 0 0 1 17.223.002"/>
        <path stroke="#D82E2E" d="M117.817 69.7a8.612 8.612 0 1 1-17.223-.001 8.612 8.612 0 0 1 17.223.002z"/>
        <path fill="#FFF" d="M25.198 76.762h43.385V24.866H25.198z"/>
        <path stroke="#D82E2E" d="M25.198 76.762h43.385V24.866H25.198z"/>
        <path fill="#FFF" d="M30.136 71.825h43.385V19.929H30.136z"/>
        <path stroke="#D82E2E" d="M30.136 71.825h43.385V19.929H30.136zM53.62 30.36h12.253M53.62 38.119h12.253M37.783 45.876h28.09M37.783 53.634h28.09M37.783 61.393h28.09"/>
        <path fill="#FFF" d="M49.384 33.342a5.913 5.913 0 1 1-11.828 0 5.913 5.913 0 0 1 11.828 0"/>
        <path stroke="#D82E2E" d="M49.384 33.342a5.913 5.913 0 1 1-11.828 0 5.913 5.913 0 0 1 11.828 0z"/>
        <path fill="#FFF" d="M103.742 49.678c0 6.237-5.057 11.294-11.294 11.294s-11.293-5.057-11.293-11.294 5.056-11.293 11.293-11.293c6.237 0 11.294 5.056 11.294 11.293"/>
        <path stroke="#D82E2E" d="M103.742 49.678c0 6.237-5.057 11.294-11.294 11.294s-11.293-5.057-11.293-11.294 5.056-11.293 11.293-11.293c6.237 0 11.294 5.056 11.294 11.293z"/>
        <path fill="#FFF" d="M128.368 22.97c0 7.944-6.44 14.385-14.386 14.385-7.945 0-14.385-6.44-14.385-14.385 0-7.945 6.44-14.386 14.385-14.386 7.945 0 14.386 6.441 14.386 14.386"/>
        <path stroke="#D82E2E" d="M128.368 22.97c0 7.944-6.44 14.385-14.386 14.385-7.945 0-14.385-6.44-14.385-14.385 0-7.945 6.44-14.386 14.385-14.386 7.945 0 14.386 6.441 14.386 14.386zM52.425 12.074l-1.387-7.662M17.971 17.358L9.89 7.835M10.438 25.395l-6.902-4.851M10.379 61.447l-8.97 3.013M42.255 84.823l-1.69 6.558M84.233 82.507l1.35 6.687M128.952 69.13l9.14 5.344M132.339 38.184l6.338-1.826M89.644 12.644l3.384-9.013M94.549 81.592l4.94 8.285M80.623 12.644l1.186-7.563M131.72 60.167l7.76 1.4M14.53 70.39L2.84 79.331"/>
    </g>
</svg>
