<svg xmlns="http://www.w3.org/2000/svg" width="140" height="94" viewBox="0 0 140 94">
    <g fill="none" fill-rule="evenodd">
        <path fill="#FFF" d="M-930-1323H510v2576H-930z"/>
        <path fill="#EAEAEA" d="M41.438 74.498h57.123c14.852 0 26.892-12.04 26.892-26.892 0-14.851-12.04-26.891-26.892-26.891H41.438c-14.852 0-26.892 12.04-26.892 26.891 0 14.852 12.04 26.892 26.892 26.892"/>
        <path fill="#FFF" d="M48.373 32.75c0 9.102-7.377 16.48-16.478 16.48-9.101 0-16.478-7.378-16.478-16.48 0-9.1 7.377-16.477 16.478-16.477 9.101 0 16.478 7.377 16.478 16.478"/>
        <path stroke="#D82E2E" d="M48.373 32.75c0 9.102-7.377 16.48-16.478 16.48-9.101 0-16.478-7.378-16.478-16.48 0-9.1 7.377-16.477 16.478-16.477 9.101 0 16.478 7.377 16.478 16.478z"/>
        <path fill="#FFF" d="M61.467 88.104H2.323l1.715-18.878c.844-9.282 8.626-16.39 17.947-16.39h19.82c9.32 0 17.103 7.108 17.947 16.39l1.715 18.878z"/>
        <path stroke="#D82E2E" d="M61.467 88.104H2.323l1.715-18.878c.844-9.282 8.626-16.39 17.947-16.39h19.82c9.32 0 17.103 7.108 17.947 16.39l1.715 18.878z"/>
        <path fill="#FFF" d="M29.44 58.727l-1.512-5.89h7.933l-1.512 5.89z"/>
        <path stroke="#D82E2E" d="M29.44 58.727l-1.512-5.89h7.933l-1.512 5.89z"/>
        <path fill="#FFF" d="M34.35 58.727H29.44l-2.457 21.38 4.911 4.936 4.911-4.936z"/>
        <path stroke="#D82E2E" d="M34.35 58.727H29.44l-2.457 21.38 4.911 4.936 4.911-4.936z"/>
        <path fill="#FFF" d="M26.914 36.645h-5.779a2.655 2.655 0 0 1-2.655-2.656v-2.475a2.655 2.655 0 0 1 2.655-2.655h5.78a2.655 2.655 0 0 1 2.654 2.654v2.476a2.655 2.655 0 0 1-2.655 2.656"/>
        <path stroke="#D82E2E" d="M26.914 36.645h-5.779a2.655 2.655 0 0 1-2.655-2.656v-2.475a2.655 2.655 0 0 1 2.655-2.655h5.78a2.655 2.655 0 0 1 2.654 2.654v2.476a2.655 2.655 0 0 1-2.655 2.656z"/>
        <path fill="#FFF" d="M42.654 36.645h-5.778a2.656 2.656 0 0 1-2.656-2.656v-2.475a2.655 2.655 0 0 1 2.656-2.655h5.778a2.655 2.655 0 0 1 2.656 2.654v2.476a2.656 2.656 0 0 1-2.656 2.656"/>
        <path stroke="#D82E2E" d="M42.654 36.645h-5.778a2.656 2.656 0 0 1-2.656-2.656v-2.475a2.655 2.655 0 0 1 2.656-2.655h5.778a2.655 2.655 0 0 1 2.656 2.654v2.476a2.656 2.656 0 0 1-2.656 2.656zM29.57 31.932h4.65"/>
        <path fill="#FFF" d="M122.936 23.272c0 10.66-8.642 19.3-19.3 19.3-10.66 0-19.3-8.64-19.3-19.3 0-10.659 8.64-19.3 19.3-19.3 10.659 0 19.3 8.641 19.3 19.3"/>
        <path stroke="#D82E2E" d="M122.936 23.272c0 10.66-8.642 19.3-19.3 19.3-10.66 0-19.3-8.64-19.3-19.3 0-10.659 8.64-19.3 19.3-19.3 10.659 0 19.3 8.641 19.3 19.3z"/>
        <path fill="#FFF" d="M138.272 88.104H69l2.007-22.11c.989-10.872 10.104-19.197 21.02-19.197h23.215c10.918 0 20.032 8.325 21.02 19.197l2.008 22.11z"/>
        <path stroke="#D82E2E" d="M138.272 88.104H69l2.007-22.11c.989-10.872 10.104-19.197 21.02-19.197h23.215c10.918 0 20.032 8.325 21.02 19.197l2.008 22.11z"/>
        <path fill="#FFF" d="M97.883 27.832h-6.93a3.029 3.029 0 0 1-3.03-3.029v-3.061a3.03 3.03 0 0 1 3.03-3.03h6.93a3.03 3.03 0 0 1 3.029 3.03v3.061a3.029 3.029 0 0 1-3.03 3.029"/>
        <path stroke="#D82E2E" d="M97.883 27.832h-6.93a3.029 3.029 0 0 1-3.03-3.029v-3.061a3.03 3.03 0 0 1 3.03-3.03h6.93a3.03 3.03 0 0 1 3.029 3.03v3.061a3.029 3.029 0 0 1-3.03 3.029z"/>
        <path fill="#FFF" d="M116.318 27.832h-6.929a3.029 3.029 0 0 1-3.03-3.029v-3.061a3.03 3.03 0 0 1 3.03-3.03h6.93a3.03 3.03 0 0 1 3.03 3.03v3.061a3.029 3.029 0 0 1-3.03 3.029"/>
        <path stroke="#D82E2E" d="M116.318 27.832h-6.929a3.029 3.029 0 0 1-3.03-3.029v-3.061a3.03 3.03 0 0 1 3.03-3.03h6.93a3.03 3.03 0 0 1 3.03 3.03v3.061a3.029 3.029 0 0 1-3.03 3.029zM100.912 22.312h5.447"/>
        <path fill="#FFF" d="M103.636 71.536L91.615 59.878l2.577-13.08h3.534l5.91 19.926z"/>
        <path stroke="#D82E2E" d="M103.636 71.536L91.615 59.878l2.577-13.08h3.534l5.91 19.926z"/>
        <path fill="#FFF" d="M103.636 71.536l12.02-11.658-2.576-13.08h-3.533l-5.911 19.926z"/>
        <path stroke="#D82E2E" d="M103.636 71.536l12.02-11.658-2.576-13.08h-3.533l-5.911 19.926zM103.636 71.536v16.568"/>
    </g>
</svg>
